<svg width="79" height="66" viewBox="0 0 79 66" fill="none" xmlns="http://www.w3.org/2000/svg">
<path fill-rule="evenodd" clip-rule="evenodd" d="M28.5248 16.1616C24.676 16.1616 21.3208 17.6368 19.0772 20.4112C16.8338 23.1855 15.5576 27.3736 15.5576 32.7634C15.5576 42.0807 19.1997 49.3607 28.4565 49.3607C34.0552 49.3607 37.5308 46.7258 39.4771 42.6543C40.8141 39.8576 41.4051 36.4066 41.4051 32.7361C41.4051 22.6026 37.2487 16.1616 28.5248 16.1616ZM28.4557 22.1796C29.7911 22.1796 30.7475 22.8792 31.4121 23.9337C32.3957 25.4941 32.921 28.8148 32.921 32.7174C32.921 35.6547 32.6237 38.5886 31.7794 40.6129C31.3017 41.7585 30.4104 43.2553 28.442 43.2553C27.1855 43.2553 26.0023 42.5942 25.1545 40.8075C24.4335 39.2881 24.0028 36.2448 24.0028 32.7174C24.0028 28.8712 24.5867 25.3771 25.8026 23.6447C26.4673 22.6977 27.361 22.1796 28.4557 22.1796Z" fill="white"/>
<path fill-rule="evenodd" clip-rule="evenodd" d="M0.62793 21.7587V28.3968L4.26324 26.8759V49.3853H12.5358V16.5541L0.62793 21.7587Z" fill="white"/>
<path fill-rule="evenodd" clip-rule="evenodd" d="M48.7255 35.2173C46.7645 35.2173 45.1748 33.6294 45.1748 31.6707C45.1748 29.7121 46.7645 28.124 48.7255 28.124C49.4417 28.124 50.1084 28.3359 50.6663 28.7003L60.3393 35.2173H48.7255ZM49.7069 27.2364C48.0642 26.1701 47.5972 23.9747 48.664 22.3327C49.7309 20.6908 51.9275 20.224 53.5701 21.2903C54.148 21.6641 54.604 22.1988 54.8819 22.8285L59.8253 34.0969L49.7069 27.2364ZM75.3481 35.2207C77.3138 35.2207 78.9073 33.6313 78.9073 31.6706C78.9073 29.7098 77.3138 28.1204 75.3481 28.1204C74.6305 28.1204 73.9623 28.3324 73.4032 28.6972L63.7078 35.2209L75.3481 35.2207ZM74.3669 27.2362C76.0132 26.169 76.4813 23.9713 75.4121 22.3278C74.3429 20.6844 72.1416 20.2172 70.4953 21.2846C69.916 21.6585 69.4589 22.1937 69.1803 22.8244L64.2258 34.1034L74.3669 27.2362ZM63.4478 20.5634C63.1943 20.7597 62.4994 20.8665 62.6501 22.1037L64.1509 32.6004L69.1565 21.1584C69.9567 19.3665 69.1484 17.2673 67.3517 16.4696C65.5546 15.6718 63.449 16.4775 62.649 18.2694C62.3896 18.848 62.2909 19.4859 62.3634 20.1159L63.3068 20.1142C63.8414 20.1407 64.1228 20.2828 63.4478 20.5634ZM54.9146 21.1613C54.1162 19.371 54.9227 17.2736 56.7158 16.4766C58.5091 15.6797 60.6102 16.4847 61.4085 18.275C61.6902 18.9036 61.7816 19.601 61.6714 20.281L59.9097 32.5932L54.9146 21.1613ZM76.6488 48.9142C76.0738 49.1482 75.219 49.3853 74.4268 49.3853C70.8056 49.3853 67.8697 46.6052 67.8697 43.176C67.8697 39.7467 70.8056 36.9668 74.4268 36.9668C75.206 36.9668 76.0607 37.1566 76.6488 37.4264V39.8002C75.9891 39.3661 75.2165 39.1354 74.4268 39.1365C72.1914 39.1365 70.3788 40.945 70.3788 43.1759C70.3788 45.4066 72.1914 47.215 74.4268 47.215C75.2433 47.215 76.0129 46.9738 76.6488 46.5585V48.9142ZM54.8621 37.3725H57.2693V49.2366L49.8587 42.4687V48.9769H47.4515V37.1159L54.8621 43.8837V37.3725ZM65.3359 42.7756C66.0708 42.2311 66.7107 41.7114 66.7048 40.341C66.6966 38.5372 65.2373 37.3613 63.4272 37.3613H58.6504V48.9883H64.0083C65.906 48.9883 67.3499 47.5487 67.3499 45.657C67.3499 43.7656 65.7863 42.94 65.3359 42.7756ZM61.0707 39.119L62.86 39.1192C63.6977 39.1192 64.3767 39.7961 64.3767 40.6311C64.3767 41.4659 63.6977 42.1429 62.86 42.1429H61.0707V39.119ZM63.2491 47.2429H61.071V43.8799L63.2493 43.87C64.1832 43.87 64.9403 44.6251 64.9403 45.5566C64.9403 46.488 64.183 47.2429 63.2491 47.2429Z" fill="white"/>
</svg>
