<svg width="185" height="66" viewBox="0 0 185 66" fill="none" xmlns="http://www.w3.org/2000/svg">
<path d="M0.773438 48.3133V16.6311H14.9046C20.927 16.6311 24.0243 20.4811 24.0243 24.6968C24.0243 28.6329 21.5508 31.343 18.5611 31.9668C21.9809 32.483 24.648 35.7738 24.648 39.7099C24.648 44.5063 21.5078 48.3133 15.4423 48.3133H0.773438ZM17.1415 25.9013C17.1415 23.944 15.7219 22.5675 13.442 22.5675H7.52715V29.2137H13.442C15.7219 29.2137 17.1415 27.9446 17.1415 25.9013ZM17.7653 38.7635C17.7653 36.7632 16.3457 35.15 13.7216 35.15H7.52715V42.3769H13.7431C16.2381 42.3769 17.7653 41.0434 17.7653 38.7635Z" fill="white"/>
<path d="M26.498 39.1293V25.3638H32.5635V38.9357C32.5635 41.6673 34.2196 43.6461 37.4459 43.6461C40.6292 43.6461 42.3069 41.6673 42.3069 38.9357V25.3638H48.3508V39.1078C48.3508 44.8721 44.8879 48.9157 37.4674 48.9157C30.047 48.9157 26.498 44.8291 26.498 39.1293Z" fill="white"/>
<path d="M50.3525 48.3135V43.7967L60.6982 30.6334H50.3525V25.3638H68.9145V29.687L58.3753 43.0439H69.1081V48.3135H50.3525Z" fill="white"/>
<path d="M71.0859 48.3135V43.7967L81.4316 30.6334H71.0859V25.3638H89.6479V29.687L79.1087 43.0439H89.8415V48.3135H71.0859Z" fill="white"/>
<path d="M92.0996 48.3133V16.6311H114.081V22.5675H98.8533V29.2137H110.317V35.15H98.8533V48.3133H92.0996Z" fill="white"/>
<path d="M112.018 36.8279C112.018 30.1817 116.965 24.8046 123.89 24.8046C130.773 24.8046 135.376 29.9451 135.376 37.3871V38.8067H118.32C118.75 41.6028 121.03 43.9472 124.923 43.9472C126.88 43.9472 129.526 43.1299 131.01 41.7103L133.72 45.7109C131.44 47.7973 127.826 48.8942 124.277 48.8942C117.287 48.8942 112.018 44.1838 112.018 36.8279ZM123.89 29.7515C120.148 29.7515 118.513 32.3541 118.277 34.634H129.59C129.397 32.4401 127.869 29.7515 123.89 29.7515Z" fill="white"/>
<path d="M137.01 36.8279C137.01 30.1817 141.957 24.8046 148.883 24.8046C155.765 24.8046 160.368 29.9451 160.368 37.3871V38.8067H143.312C143.742 41.6028 146.022 43.9472 149.915 43.9472C151.872 43.9472 154.518 43.1299 156.002 41.7103L158.712 45.7109C156.432 47.7973 152.819 48.8942 149.27 48.8942C142.279 48.8942 137.01 44.1838 137.01 36.8279ZM148.883 29.7515C145.14 29.7515 143.505 32.3541 143.269 34.634H154.582C154.389 32.4401 152.862 29.7515 148.883 29.7515Z" fill="white"/>
<path d="M162.584 48.3564V25.3207H171.833C179.081 25.3207 184.308 29.6654 184.308 36.8278C184.308 43.9687 179.103 48.3564 171.876 48.3564H162.584ZM178.436 36.8278C178.436 33.2574 176.285 30.2892 172.069 30.2892H168.327V43.3879H172.069C176.091 43.3879 178.436 40.2477 178.436 36.8278Z" fill="white"/>
</svg>
