<svg width="92" height="66" viewBox="0 0 92 66" fill="none" xmlns="http://www.w3.org/2000/svg">
<path d="M0.538086 24.6632V40.8723C3.00056 44.9784 7.19403 47.7445 11.9379 48.3919H16.1813C23.9977 47.3313 29.8306 40.6614 29.8396 32.7731C29.8302 24.8845 23.9974 18.2149 16.1802 17.1547H11.9372C7.19547 17.7996 3.00272 20.5617 0.538086 24.6632ZM14.0591 25.3189C18.176 25.3189 21.5137 28.6562 21.5137 32.7731C21.5137 36.8901 18.1764 40.2277 14.0594 40.2277C9.94249 40.2277 6.60482 36.8901 6.60482 32.7731C6.60482 28.6562 9.94213 25.3189 14.0591 25.3189Z" fill="white"/>
<path d="M45.8323 32.684C47.3966 32.684 48.6149 32.3269 49.4873 31.613C50.3898 30.8693 50.841 29.8727 50.841 28.6231V28.534C50.841 27.1953 50.3898 26.1836 49.4873 25.4996C48.6149 24.7857 47.3815 24.4286 45.7874 24.4286H39.9427V32.684H45.8323ZM31.5752 17.1547H46.464C48.4493 17.1547 50.2543 17.4076 51.8786 17.9135C53.5029 18.3895 54.8868 19.1034 56.0297 20.0555C57.1729 20.9777 58.0452 22.1231 58.6466 23.4916C59.2783 24.8601 59.5941 26.4071 59.5941 28.1327V28.2218C59.5941 30.0663 59.2481 31.6877 58.5561 33.086C57.8943 34.4843 56.9616 35.6595 55.7584 36.6113C54.5552 37.5633 53.1113 38.2772 51.4266 38.7533C49.7722 39.2293 47.9672 39.4671 46.012 39.4671H39.9417V48.3923H31.5752V17.1547Z" fill="white"/>
<path d="M78.3779 41.4306C79.7316 41.4306 80.7692 41.1927 81.4914 40.7167C82.2132 40.2108 82.5742 39.497 82.5742 38.5747V38.4856C82.5742 37.623 82.2283 36.9386 81.5363 36.4327C80.8443 35.9268 79.7615 35.6739 78.2877 35.6739H71.0785V41.4306H78.3779ZM77.1143 29.605C78.4681 29.605 79.4906 29.3819 80.1825 28.9357C80.9043 28.4895 81.2654 27.805 81.2654 26.8828V26.7937C81.2654 25.9311 80.9345 25.2765 80.2727 24.8302C79.6109 24.3542 78.6182 24.1164 77.2947 24.1164H71.0781V29.6054L77.1143 29.605ZM62.7109 17.1547H79.28C81.2654 17.1547 82.9651 17.3925 84.3789 17.8685C85.7926 18.3446 86.9657 19.0437 87.8983 19.966C88.5299 20.5908 89.0265 21.3197 89.3872 22.1526C89.7483 22.9857 89.9286 23.9374 89.9286 25.0084V25.0975C89.9286 26.9122 89.4623 28.3849 88.5299 29.5156C87.6274 30.6164 86.4695 31.4643 85.0557 32.0592C86.9811 32.684 88.5001 33.5912 89.6132 34.7815C90.7564 35.9416 91.3276 37.5781 91.3276 39.6903V39.7794C91.3276 42.4865 90.275 44.5987 88.1692 46.1163C86.0937 47.6335 83.1606 48.3923 79.3706 48.3923H62.7113L62.7109 17.1547Z" fill="white"/>
</svg>
