<svg width="212" height="66" viewBox="0 0 212 66" fill="none" xmlns="http://www.w3.org/2000/svg">
<path d="M188.321 23.1814V42.3102H186.962L174.21 25.5378V42.3102H172.713V23.1814H174.21L186.824 39.6765V23.1814H188.321Z" fill="white"/>
<path d="M164.96 23.1814V42.3102H163.463V23.1814H164.96Z" fill="white"/>
<path d="M150.075 30.6666L158.336 42.3102H156.451L149.049 31.6369L146.804 33.8547V42.3102H145.307V23.1814H146.804V32.1359L155.841 23.1814H157.782L150.075 30.6666Z" fill="white"/>
<path d="M138.64 37.3199C138.64 40.2308 136.228 42.6427 132.514 42.6427C128.799 42.6427 127.08 39.9813 126.664 39.2051L127.828 38.3734C128.521 39.6487 130.185 41.3398 132.652 41.3398C135.12 41.3398 137.116 39.815 137.116 37.3199C137.116 34.8249 134.565 33.8823 133.456 33.4387C132.347 32.9952 131.1 32.4684 130.323 32.0526C129.575 31.6368 127.551 30.3892 127.551 27.6169C127.551 24.8447 129.963 22.9041 133.179 22.9041C136.395 22.9041 138.003 25.1219 138.169 25.3991L137.116 26.314C136.395 25.3991 135.286 24.2348 133.068 24.2348C130.85 24.2348 129.076 25.3991 129.076 27.5615C129.076 29.7239 130.573 30.5833 131.931 31.1655C133.29 31.7476 135.424 32.6348 135.868 32.8843C136.312 33.1338 138.64 34.409 138.64 37.3199Z" fill="white"/>
<path d="M121.18 32.7458C121.18 36.2111 119.517 38.429 118.269 39.6765C117.022 40.924 114.61 42.3102 111.283 42.3102H106.016V23.1814H111.283C114.61 23.1814 117.022 24.5675 118.269 25.8151C119.517 27.0626 121.18 29.2804 121.18 32.7458ZM119.628 32.7458C119.628 29.6963 118.186 27.7279 116.966 26.5913C115.746 25.4547 113.778 24.5398 111.144 24.5398H107.513V40.9517H111.144C113.778 40.9517 115.746 40.0646 116.966 38.928C118.186 37.7913 119.628 35.7953 119.628 32.7458Z" fill="white"/>
<path d="M98.2427 23.1814V42.3102H96.8843L84.1318 25.5378V42.3102H82.6348V23.1814H84.1318L96.7457 39.6765V23.1814H98.2427Z" fill="white"/>
<path d="M76.032 32.7734C76.032 38.8724 71.5409 42.6427 66.329 42.6427C61.1448 42.6427 56.626 38.8724 56.626 32.7734C56.626 26.6744 61.1448 22.9041 66.329 22.9041C71.5409 22.9041 76.032 26.6744 76.032 32.7734ZM74.4795 32.7457C74.4795 27.3952 70.7092 24.2348 66.329 24.2348C61.9765 24.2348 58.2062 27.3674 58.2062 32.7457C58.2062 38.0685 62.0042 41.2289 66.329 41.2289C70.7092 41.2289 74.4795 38.0685 74.4795 32.7457Z" fill="white"/>
<path d="M51.1577 38.7061L52.128 39.6764C50.7419 41.2011 48.524 42.6427 45.0587 42.6427C39.5141 42.6427 35.4111 38.5952 35.4111 32.7734C35.4111 26.9516 39.6527 22.9041 45.0587 22.9041C48.3854 22.9041 50.6033 24.2902 51.9894 25.6763L51.0191 26.7853C50.0488 25.5377 47.831 24.2625 45.0587 24.2625C40.3458 24.2625 37.0191 27.7278 37.0191 32.7179C37.0191 37.7081 40.3458 41.2289 45.0587 41.2289C47.6924 41.2289 49.7716 40.2308 51.1577 38.7061Z" fill="white"/>
<path d="M29.8753 40.9517V42.3102H19.2852V23.1814H29.6812V24.5398H20.7822V31.4705H29.1822V32.829H20.7822V40.9517H29.8753Z" fill="white"/>
<path d="M12.6189 37.3199C12.6189 40.2308 10.207 42.6427 6.4921 42.6427C2.77724 42.6427 1.05842 39.9813 0.642578 39.2051L1.80694 38.3734C2.50001 39.6487 4.16338 41.3398 6.63071 41.3398C9.09805 41.3398 11.0941 39.815 11.0941 37.3199C11.0941 34.8249 8.54359 33.8823 7.43468 33.4387C6.32576 32.9952 5.07823 32.4684 4.30199 32.0526C3.55348 31.6368 1.52971 30.3892 1.52971 27.6169C1.52971 24.8447 3.9416 22.9041 7.15745 22.9041C10.3733 22.9041 11.9812 25.1219 12.1476 25.3991L11.0941 26.314C10.3733 25.3991 9.26438 24.2348 7.04656 24.2348C4.82873 24.2348 3.05447 25.3991 3.05447 27.5615C3.05447 29.7239 4.5515 30.5833 5.90992 31.1655C7.26834 31.7476 9.403 32.6348 9.84656 32.8843C10.2901 33.1338 12.6189 34.409 12.6189 37.3199Z" fill="white"/>
<path d="M202.226 24.1913H199.448V31.3739H198.483V24.1913H195.705V23.3397H202.226V24.1913ZM204.241 23.3719L207.618 29.1337L210.964 23.3719L210.981 23.3397H211.772V31.3739H210.842V25.2235L207.855 30.3378L207.837 30.37H207.368L207.349 30.3378L204.363 25.2577V31.3739H203.433V23.3397H204.223L204.241 23.3719Z" fill="white"/>
<path d="M174.241 23.1173L174.26 23.1424L186.759 39.4865V23.1173H188.384V42.3743H186.93L174.274 25.7284V42.3743H172.648V23.1173H174.241ZM172.777 42.246H174.145V25.3473L186.994 42.246H188.256V23.2457H186.887V39.8655L186.773 39.7151L174.178 23.2457H172.777V42.246Z" fill="white"/>
<path d="M174.273 23.0531L174.311 23.1032L186.694 39.296V23.0531H188.448V42.4384H186.898L174.338 25.9188V42.4384H172.584V23.0531H174.273ZM172.841 42.1817H174.081V25.1568L187.026 42.1817H188.191V23.3098H186.951V40.056L186.835 39.9046L186.721 39.7542L174.145 23.3098H172.841V42.1817Z" fill="white"/>
<path d="M165.024 23.1173V42.3743H163.398V23.1173H165.024ZM163.527 42.246H164.895V23.2457H163.527V42.246Z" fill="white"/>
<path d="M165.088 23.0531V42.4384H163.334V23.0531H165.088ZM163.591 42.1817H164.831V23.3098H163.591V42.1817Z" fill="white"/>
<path d="M146.868 23.1173V31.9812L155.796 23.1354L155.815 23.1173H157.939L157.826 23.2276L150.158 30.6737L158.389 42.273L158.46 42.3743H156.417L156.398 42.3462L149.039 31.7356L146.868 33.8814V42.3743H145.242V23.1173H146.868ZM145.371 42.246H146.739V33.8282L146.758 33.8092L149.004 31.5912L149.058 31.537L149.102 31.6002L156.485 42.246H158.211L150.022 30.7038L149.991 30.6587L150.03 30.6206L157.624 23.2457H155.867L146.739 32.2901V23.2457H145.371V42.246Z" fill="white"/>
<path d="M146.932 23.0531V31.8278L155.751 23.0902L155.752 23.0892L155.771 23.0711L155.789 23.0531H158.098L157.985 23.1634L157.872 23.2737L150.243 30.6817L158.442 42.2359L158.584 42.4384H156.384L156.346 42.3823L149.03 31.8348L146.932 33.9084V42.4384H145.179V23.0531H146.932ZM150.076 30.6667L158.264 42.2088L158.336 42.3101H158.337L150.107 30.7108L150.075 30.6657V30.6647L150.076 30.6667ZM145.435 42.1817H146.676V33.8011L146.695 33.7831L146.714 33.764V33.763L148.96 31.545L149.014 31.4919L149.068 31.4367L149.112 31.5009L149.155 31.5641L156.519 42.1817H158.088L149.971 30.7409L149.97 30.7399L149.939 30.6947L149.908 30.6506L149.947 30.6125L149.986 30.5744L157.466 23.3098H155.894L146.785 32.3352L146.676 32.4445V23.3098H145.435V42.1817ZM146.913 32.0263L146.804 32.1356L155.822 23.2005L155.842 23.1814H155.84L146.913 32.0263Z" fill="white"/>
<path d="M129.012 27.5612C129.012 26.4606 129.464 25.61 130.201 25.0364C130.936 24.4641 131.949 24.1711 133.069 24.1711C135.272 24.1712 136.395 25.3089 137.123 26.2216L138.083 25.3874C137.81 24.9776 136.223 22.9678 133.179 22.9678C129.987 22.9679 127.616 24.8914 127.616 27.6174C127.616 30.3512 129.609 31.5822 130.354 31.9962L130.664 32.1556C131.435 32.5396 132.509 32.9907 133.48 33.3789C134.032 33.6 134.956 33.9498 135.741 34.5591C136.527 35.17 137.18 36.0465 137.18 37.3196C137.18 38.5856 136.673 39.6093 135.851 40.3147C135.03 41.0191 133.899 41.4036 132.652 41.4036C130.194 41.4036 128.527 39.7457 127.807 38.4657L126.748 39.2237C127.203 40.0494 128.91 42.5788 132.514 42.5788C136.199 42.5786 138.576 40.1891 138.576 37.3196C138.576 34.4487 136.281 33.1893 135.837 32.9397C135.619 32.8171 134.978 32.5353 134.218 32.2088C133.457 31.8823 132.588 31.5162 131.906 31.2241C131.226 30.9324 130.501 30.5682 129.948 30.0008C129.393 29.4311 129.012 28.6593 129.012 27.5612ZM129.14 27.5612C129.14 28.6254 129.508 29.3654 130.04 29.9116C130.575 30.4598 131.279 30.8164 131.957 31.1068C132.633 31.3968 133.511 31.7655 134.268 32.0905C135.025 32.4153 135.673 32.7015 135.899 32.8284C136.343 33.078 138.705 34.3694 138.705 37.3196C138.705 40.2716 136.258 42.7069 132.514 42.7071C128.764 42.7071 127.027 40.0194 126.607 39.2357L126.581 39.1856L126.627 39.1525L127.791 38.3213L127.85 38.2792L127.885 38.3423C128.571 39.605 130.217 41.2753 132.652 41.2753C133.873 41.2752 134.974 40.8979 135.768 40.2164C136.561 39.5357 137.051 38.5483 137.051 37.3196C137.051 36.098 136.428 35.2553 135.663 34.6604C134.895 34.064 133.989 33.7207 133.433 33.4983C132.324 33.0548 131.073 32.5272 130.293 32.1095L130.292 32.1085C129.54 31.6905 127.488 30.4266 127.488 27.6174C127.488 24.7989 129.94 22.8395 133.179 22.8395C136.427 22.8395 138.052 25.0794 138.224 25.3663L138.252 25.4124L138.211 25.4475L137.158 26.362L137.106 26.4061L137.065 26.354C136.35 25.4455 135.257 24.2996 133.069 24.2994C131.97 24.2994 130.987 24.5873 130.28 25.1377C129.575 25.6868 129.14 26.4998 129.14 27.5612Z" fill="white"/>
<path d="M128.953 27.3538C129.006 26.3332 129.457 25.5355 130.162 24.9864C130.911 24.4032 131.939 24.107 133.069 24.107C135.258 24.1071 136.396 25.22 137.13 26.1304L137.996 25.3774C137.651 24.8885 136.089 23.0321 133.179 23.0321C130.01 23.0321 127.68 24.9377 127.68 27.6175L127.686 27.8661C127.802 30.3865 129.664 31.539 130.384 31.9391L130.693 32.0986L131.32 32.3964C131.991 32.7026 132.776 33.0288 133.504 33.3199C134.055 33.5402 134.987 33.8925 135.78 34.5081C136.577 35.127 137.244 36.0209 137.244 37.3197C137.244 38.6042 136.73 39.6462 135.893 40.3639C135.111 41.0351 134.054 41.4175 132.887 41.4628L132.653 41.4679C130.202 41.4679 128.532 39.8415 127.788 38.558L126.832 39.2418C127.321 40.1065 129.014 42.5147 132.514 42.5147L132.853 42.5077C136.314 42.366 138.512 40.0595 138.512 37.3197C138.512 34.489 136.251 33.246 135.806 32.996C135.592 32.8755 134.955 32.5953 134.193 32.268C133.431 31.9409 132.565 31.5763 131.882 31.2834C131.199 30.991 130.465 30.6229 129.902 30.046C129.335 29.4645 128.948 28.6764 128.948 27.5613L128.953 27.3538ZM135.78 40.2897C135.688 40.367 135.593 40.441 135.493 40.5103C135.438 40.5486 135.382 40.5857 135.325 40.6216C135.21 40.6934 135.091 40.7596 134.968 40.8211C135.263 40.6735 135.535 40.4957 135.78 40.2897ZM126.811 39.4604C126.764 39.384 126.725 39.315 126.692 39.2549L126.663 39.2058C126.701 39.2764 126.751 39.362 126.811 39.4604ZM136.766 39.0002C136.681 39.1856 136.582 39.3612 136.47 39.5266L136.577 39.3582C136.646 39.2432 136.709 39.124 136.766 39.0002ZM127.864 38.4347C127.867 38.4401 127.871 38.4452 127.874 38.4507C127.867 38.4381 127.859 38.4261 127.852 38.4136L127.864 38.4347ZM133.457 33.4392L133.456 33.4382C133.299 33.3755 133.14 33.3101 132.98 33.2447C133.14 33.3102 133.3 33.3764 133.457 33.4392ZM130.332 32.0575C130.564 32.1812 130.838 32.3124 131.137 32.4505L130.635 32.2129L130.331 32.0564L130.332 32.0575ZM138.169 25.3985L138.125 25.4356L137.165 26.2698L137.115 26.3129L137.116 26.3139L138.17 25.3995C138.164 25.3898 138.155 25.3786 138.145 25.3644L138.169 25.3985ZM137.685 24.8019C137.907 25.0358 138.054 25.2303 138.126 25.3373C138.053 25.2294 137.907 25.0351 137.685 24.8019ZM129.204 27.5613C129.204 28.6084 129.566 29.3322 130.087 29.8665C130.612 30.4052 131.306 30.758 131.982 31.0477C132.656 31.3366 133.538 31.7073 134.293 32.0314C135.048 32.3553 135.701 32.6432 135.93 32.7724C136.374 33.022 138.769 34.33 138.769 37.3197C138.769 40.2194 136.44 42.6172 132.864 42.7644L132.514 42.7714C128.728 42.7714 126.975 40.0568 126.551 39.2659L126.524 39.2158L126.499 39.1656L126.544 39.1336L126.59 39.1005L127.754 38.2692L127.873 38.185L127.94 38.3113C128.619 39.5614 130.248 41.2112 132.653 41.2112L132.877 41.2072C133.995 41.1637 134.994 40.7956 135.726 40.1673C136.504 39.4989 136.987 38.5299 136.987 37.3197C136.987 36.1239 136.379 35.2985 135.624 34.7116C134.864 34.1218 133.967 33.7807 133.409 33.5575C132.3 33.1141 131.046 32.5853 130.263 32.1657L130.254 32.1617L130.252 32.1587C129.488 31.7333 127.424 30.4526 127.424 27.6175C127.424 24.7527 129.916 22.7754 133.179 22.7754C136.05 22.7754 137.666 24.5077 138.144 25.1388L138.28 25.3333L138.307 25.3804L138.334 25.4255L138.254 25.4957L137.2 26.4102L137.098 26.4984L137.015 26.3942C136.349 25.5484 135.361 24.504 133.461 24.3767L133.069 24.3637C131.981 24.3637 131.012 24.6484 130.319 25.1879C129.63 25.7247 129.204 26.5195 129.204 27.5613Z" fill="white"/>
<path d="M121.116 32.7453C121.116 29.3035 119.465 27.1013 118.224 25.8607C116.988 24.6245 114.592 23.2458 111.284 23.2457H106.08V42.246H111.284C114.592 42.2458 116.988 40.8671 118.224 39.6309C119.465 38.3903 121.116 36.1874 121.116 32.7453ZM119.564 32.7453C119.564 29.7188 118.134 27.7661 116.923 26.6378C115.716 25.513 113.763 24.6043 111.144 24.6043H107.577V40.8873H111.144C113.763 40.8873 115.716 40.0054 116.923 38.8809C118.134 37.7527 119.564 35.7721 119.564 32.7453ZM119.692 32.7453C119.692 35.8174 118.239 37.83 117.01 38.9751C115.777 40.1238 113.792 41.0156 111.144 41.0156H107.448V24.476H111.144C113.793 24.476 115.778 25.3962 117.01 26.5446C118.239 27.6894 119.692 29.6733 119.692 32.7453ZM121.244 32.7453C121.244 36.2337 119.569 38.4676 118.315 39.7221C117.056 40.9808 114.628 42.3742 111.284 42.3743H105.951V23.1173H111.284C114.628 23.1174 117.056 24.5108 118.315 25.7695C119.569 27.0239 121.244 29.2572 121.244 32.7453Z" fill="white"/>
<path d="M121.052 32.7453C121.052 29.3265 119.412 27.1393 118.179 25.9058C116.992 24.7192 114.721 23.3955 111.589 23.3138L111.283 23.3098H106.143V42.1817H111.283L111.589 42.1777C114.721 42.096 116.992 40.7724 118.179 39.5857C119.412 38.3522 121.052 36.1643 121.052 32.7453ZM116.25 41.1279C116.029 41.2435 115.799 41.3569 115.556 41.4608L115.984 41.2663C116.075 41.2221 116.162 41.1737 116.25 41.1279ZM119.499 32.7453C119.499 29.7416 118.08 27.805 116.878 26.6849C115.684 25.5719 113.747 24.6685 111.144 24.6685H107.64V40.8231H111.144C113.748 40.8231 115.685 39.946 116.878 38.8337C118.08 37.7139 119.499 35.7495 119.499 32.7453ZM115.282 40.068C115.061 40.1754 114.829 40.2749 114.585 40.3658C114.829 40.2749 115.061 40.1754 115.282 40.068ZM115.912 39.7231V39.7241V39.7231ZM118.269 39.676C118.222 39.723 118.172 39.769 118.122 39.8164C118.172 39.7691 118.222 39.7239 118.269 39.677C118.308 39.6379 118.347 39.5967 118.386 39.5557C118.347 39.5965 118.308 39.637 118.269 39.676ZM119.25 38.555C119.109 38.7411 118.965 38.9144 118.825 39.0774C118.965 38.9144 119.109 38.7411 119.25 38.555ZM117.197 38.7054C117.166 38.7365 117.134 38.7656 117.103 38.7956C117.134 38.7656 117.166 38.7365 117.197 38.7054ZM117.747 25.3433C117.939 25.5008 118.113 25.6594 118.269 25.8156C118.284 25.8303 118.298 25.8456 118.313 25.8607C118.298 25.8455 118.284 25.8295 118.269 25.8146C118.113 25.6586 117.939 25.5006 117.747 25.3433ZM115.104 23.8503C115.499 23.9971 115.867 24.1644 116.209 24.3416C115.867 24.1644 115.499 23.9971 115.104 23.8503ZM119.756 32.7453C119.756 35.8399 118.292 37.8687 117.054 39.0222C115.808 40.1831 113.807 41.0798 111.144 41.0798H107.384V24.4118H111.144C113.808 24.4118 115.809 25.3372 117.054 26.4974C118.291 27.6505 119.756 29.6505 119.756 32.7453ZM121.308 32.7453C121.308 36.2567 119.621 38.5057 118.359 39.7672C117.129 40.9975 114.798 42.3509 111.596 42.4344L111.283 42.4384H105.887V23.0531H111.283L111.596 23.0571C114.798 23.1407 117.129 24.4941 118.359 25.7243C119.621 26.9858 121.308 29.2341 121.308 32.7453Z" fill="white"/>
<path d="M84.1636 23.1173L84.1827 23.1424L96.6814 39.4865V23.1173H98.3068V42.3743H96.8529L96.8328 42.3492L84.1957 25.7284V42.3743H82.5703V23.1173H84.1636ZM82.6987 42.246H84.0674V25.3473L96.916 42.246H98.1785V23.2457H96.8098V39.8655L96.6944 39.7151L84.0994 23.2457H82.6987V42.246Z" fill="white"/>
<path d="M84.1954 23.0531L84.2335 23.1032L96.617 39.296V23.0531H98.3707V42.4384H96.8215L96.8025 42.4144L96.7824 42.3893L96.7814 42.3883L84.2596 25.9188V42.4384H82.5059V23.0531H84.1954ZM82.7626 42.1817H84.0029V25.1568L96.9479 42.1817H98.114V23.3098H96.8737V40.055L96.643 39.7542L84.0671 23.3098H82.7626V42.1817ZM84.1503 23.2065L85.7576 25.3082L84.1312 23.1814L84.1503 23.2065Z" fill="white"/>
<path d="M75.9679 32.7733C75.9679 26.7122 71.5077 22.9679 66.3289 22.9678C61.1776 22.9678 56.6899 26.7123 56.6899 32.7733C56.6899 38.8344 61.1776 42.5788 66.3289 42.5788C71.5077 42.5787 75.9679 38.8344 75.9679 32.7733ZM74.4147 32.7452C74.4146 30.086 73.4779 27.9752 72.0012 26.5294C70.5241 25.0834 68.5033 24.2995 66.3289 24.2994C64.1681 24.2994 62.1533 25.0766 60.6796 26.5194C59.2067 27.9617 58.2702 30.0722 58.2701 32.7452C58.2701 38.0312 62.0381 41.165 66.3289 41.165C70.675 41.1649 74.4147 38.0311 74.4147 32.7452ZM76.0963 32.7733C76.0963 38.9101 71.5737 42.7071 66.3289 42.7071C61.1118 42.7071 56.5615 38.9103 56.5615 32.7733C56.5616 26.6364 61.1119 22.8395 66.3289 22.8395C71.5737 22.8395 76.0962 26.6366 76.0963 32.7733ZM74.5431 32.7452C74.5431 38.1048 70.7431 41.2932 66.3289 41.2933C61.9701 41.2933 58.1418 38.1049 58.1418 32.7452C58.1419 30.0406 59.0905 27.8956 60.5904 26.4272C62.09 24.9592 64.1373 24.1711 66.3289 24.1711C68.5344 24.1711 70.5885 24.9667 72.0915 26.4382C73.5947 27.9101 74.543 30.0545 74.5431 32.7452Z" fill="white"/>
<path d="M75.9044 32.7734C75.9044 26.9384 71.7479 23.267 66.8099 23.0431L66.3296 23.0321C61.2112 23.0321 56.7548 26.7503 56.7547 32.7734C56.7547 38.7965 61.2112 42.5147 66.3296 42.5147L66.8099 42.5037C71.7479 42.2798 75.9044 38.6084 75.9044 32.7734ZM74.3513 32.7453C74.3511 30.1019 73.4201 28.0084 71.9568 26.5757C70.5841 25.2319 68.7371 24.4635 66.7327 24.3727L66.3296 24.3637C64.1842 24.3637 62.1862 25.1355 60.7255 26.5656C59.2659 27.9948 58.3351 30.088 58.335 32.7453C58.335 37.9944 62.0729 41.1009 66.3296 41.1009L66.7317 41.0918C70.8698 40.9047 74.3513 37.8304 74.3513 32.7453ZM73.4709 28.4006C73.5236 28.5007 73.5733 28.603 73.6223 28.7064C73.5733 28.603 73.5236 28.5007 73.4709 28.4006ZM60.1048 27.0499C60.0413 27.1265 59.9811 27.2061 59.9203 27.2856C60.0614 27.101 60.2081 26.9229 60.3635 26.7541L60.1048 27.0499ZM61.2178 25.959C61.1434 26.0181 61.0715 26.0804 60.9992 26.1425C61.1696 25.9962 61.3447 25.8565 61.5266 25.7264L61.2178 25.959ZM62.8662 24.9583C62.7864 24.9941 62.7081 25.0332 62.6296 25.0716C62.824 24.9766 63.0218 24.888 63.2242 24.8089L62.8662 24.9583ZM63.9642 24.5592L63.9632 24.5602L63.9642 24.5592ZM76.1611 32.7734C76.1611 38.7552 71.8875 42.5303 66.8219 42.7603L66.3296 42.7714C61.0796 42.7714 56.498 38.9483 56.498 32.7734C56.4981 26.5985 61.0797 22.7754 66.3296 22.7754L66.8219 22.7864C71.8874 23.0165 76.1611 26.7917 76.1611 32.7734ZM74.6079 32.7453C74.6079 37.9731 71.0134 41.1548 66.7447 41.3485L66.3296 41.3576C61.9368 41.3576 58.0783 38.1418 58.0783 32.7453C58.0784 30.025 59.0326 27.8627 60.546 26.3811C62.0585 24.9005 64.1226 24.107 66.3296 24.107C68.5506 24.107 70.6214 24.908 72.1373 26.3922C73.6539 27.8771 74.6078 30.0388 74.6079 32.7453Z" fill="white"/>
<path d="M36.954 32.7182C36.954 30.2087 37.7907 28.078 39.2241 26.5746C40.6578 25.071 42.6852 24.1982 45.0579 24.1981C47.803 24.1981 50.0116 25.4414 51.019 26.6859L51.9004 25.6791C50.5213 24.3171 48.3304 22.9678 45.0579 22.9678C39.6877 22.968 35.4751 26.987 35.475 32.7733C35.475 38.5603 39.5496 42.5786 45.0579 42.5788C48.4683 42.5788 50.6584 41.1733 52.0367 39.6769L51.1574 38.7966C49.7587 40.3075 47.6803 41.2933 45.0579 41.2933C42.6849 41.2932 40.6577 40.4062 39.2241 38.8888C37.7909 37.3716 36.9541 35.2275 36.954 32.7182ZM37.0824 32.7182C37.0824 35.1986 37.9093 37.3099 39.3174 38.8006C40.7254 40.291 42.7182 41.1649 45.0579 41.165C47.6742 41.165 49.7359 40.1737 51.1092 38.6632L51.1554 38.6131L51.2025 38.6612L52.2162 39.6739L52.1751 39.7191C50.7785 41.2553 48.5438 42.7071 45.0579 42.7071C39.4773 42.707 35.3467 38.6297 35.3467 32.7733C35.3467 26.9163 39.6165 22.8396 45.0579 22.8395C48.4047 22.8395 50.6389 24.2351 52.0347 25.631L52.0769 25.6731L52.0367 25.7183L51.0671 26.8272L51.016 26.8864L50.9679 26.8242C50.0107 25.5939 47.8121 24.3265 45.0579 24.3265C42.718 24.3266 40.7252 25.1864 39.3174 26.6628C37.9093 28.1396 37.0824 30.2375 37.0824 32.7182Z" fill="white"/>
<path d="M36.8896 32.7182C36.8896 30.1944 37.7316 28.0473 39.1777 26.5305C40.6243 25.0134 42.6686 24.1341 45.0576 24.1341C47.7774 24.1341 49.9772 25.3472 51.0187 26.5877L51.8109 25.6832C50.4391 24.3454 48.2762 23.0321 45.0576 23.0321C39.723 23.0322 35.539 27.0224 35.5389 32.7734C35.5389 38.5257 39.5855 42.5146 45.0576 42.5147C48.4136 42.5147 50.576 41.1452 51.9462 39.677L51.1571 38.8869C49.7463 40.3842 47.669 41.3576 45.0576 41.3576C42.668 41.3575 40.623 40.464 39.1767 38.933C37.7311 37.4026 36.8896 35.2419 36.8896 32.7182ZM52.0816 39.6319L52.1257 39.675L52.0836 39.7201C51.1301 40.7553 49.7912 41.7462 47.9354 42.266C49.8192 41.739 51.1717 40.7277 52.1277 39.676L51.1571 38.7064L52.0816 39.6319ZM39.27 26.6188C39.3587 26.5258 39.4505 26.4351 39.5437 26.347L39.27 26.6188ZM51.9883 25.6762L51.9482 25.7213L51.0668 26.7281L51.0177 26.7832L51.0187 26.7852L51.9883 25.6762C51.9787 25.6666 51.969 25.6568 51.9593 25.6471L51.9883 25.6762ZM44.6194 24.2724C44.7638 24.2657 44.9105 24.2624 45.0576 24.2624L44.6194 24.2724ZM37.1563 33.1765C37.2518 35.4439 38.0559 37.3716 39.3642 38.7565C40.7594 40.2333 42.7348 41.1008 45.0576 41.1009C47.6568 41.1009 49.7012 40.1166 51.0618 38.6202L51.1541 38.5199L51.2483 38.6162L52.3042 39.672L52.222 39.7623C50.8149 41.3099 48.5639 42.7714 45.0576 42.7714C39.4409 42.7712 35.2822 38.6645 35.2822 32.7734C35.2823 26.8811 39.5807 22.7755 45.0576 22.7754C48.4244 22.7754 50.674 24.1804 52.0796 25.586L52.1217 25.6281L52.1648 25.6702L52.1247 25.7163L52.0846 25.7615L52.0836 25.7605L51.115 26.8694L51.0127 26.9878L50.9164 26.8634C49.9725 25.6503 47.7937 24.3908 45.0576 24.3908C42.7341 24.3908 40.7582 25.2441 39.3632 26.707C37.9679 28.1704 37.1463 30.2521 37.1463 32.7182L37.1563 33.1765Z" fill="white"/>
<path d="M29.7451 23.1173V24.6043H20.8461V31.4067H29.2468V32.8927H20.8461V40.8873H29.9396V42.3743H19.2207V23.1173H29.7451ZM19.349 42.246H29.8113V41.0156H20.7177V32.7644H29.1184V31.535H20.7177V24.476H29.6168V23.2457H19.349V42.246Z" fill="white"/>
<path d="M29.81 23.0531V24.6685H20.911V31.3425H29.3116V32.9568H20.911V40.8231H30.0045V42.4384H19.1572V23.0531H29.81ZM19.4139 42.1817H29.7478V41.0798H20.6543V32.7001H29.055V31.5992H20.6543V24.4118H29.5533V23.3098H19.4139V42.1817Z" fill="white"/>
<path d="M2.99114 27.5612C2.99121 26.4606 3.44296 25.61 4.17934 25.0364C4.91412 24.4641 5.92776 24.1711 7.04709 24.1711C9.25069 24.1711 10.3749 25.3088 11.102 26.2216L12.0616 25.3874C11.7878 24.9773 10.2016 22.9678 7.15738 22.9678C3.9653 22.968 1.59436 24.8915 1.59436 27.6174C1.59458 30.3517 3.58895 31.5824 4.33376 31.9962H4.33276C5.10547 32.4101 6.35019 32.9353 7.4592 33.3789C8.01191 33.6 8.93574 33.9497 9.7203 34.5591C10.5067 35.17 11.1581 36.0466 11.1582 37.3196C11.1582 38.5856 10.6514 39.6093 9.8296 40.3147C9.00881 41.019 7.87729 41.4036 6.63096 41.4036C4.17289 41.4035 2.50678 39.7466 1.78688 38.4667L0.727022 39.2237C1.18237 40.0497 2.88858 42.5788 6.49259 42.5788C10.1781 42.5787 12.555 40.1892 12.555 37.3196C12.5548 34.4484 10.259 33.1892 9.81556 32.9397C9.59745 32.8171 8.95676 32.5352 8.19619 32.2088C7.43552 31.8823 6.56651 31.5162 5.88495 31.2241C5.20437 30.9324 4.48092 30.5681 3.92766 30.0008C3.37211 29.4311 2.99114 28.6594 2.99114 27.5612ZM3.11948 27.5612C3.11948 28.6254 3.48634 29.3654 4.01891 29.9116C4.55361 30.4599 5.2575 30.8164 5.93508 31.1068C6.61191 31.3969 7.49019 31.7655 8.24733 32.0905C9.00433 32.4154 9.65317 32.7016 9.87873 32.8284C10.3231 33.0784 12.6831 34.3701 12.6833 37.3196C12.6833 40.2717 10.2367 42.7071 6.49259 42.7071C2.74248 42.7071 1.00674 40.0198 0.586643 39.2357L0.55957 39.1856L0.605695 39.1525L1.76984 38.3213L1.829 38.2792L1.86409 38.3423C2.55031 39.605 4.19517 41.2752 6.63096 41.2753C7.85179 41.2753 8.95234 40.898 9.74637 40.2164C10.5393 39.5357 11.0298 38.5484 11.0298 37.3196C11.0297 36.098 10.4069 35.2553 9.64109 34.6604C8.87332 34.0641 7.96723 33.7207 7.41107 33.4983C6.30235 33.0548 5.05134 32.5272 4.27159 32.1095V32.1085C3.51945 31.6906 1.46623 30.427 1.46602 27.6174C1.46602 24.7989 3.91821 22.8397 7.15738 22.8395C10.4051 22.8395 12.0309 25.0794 12.203 25.3663L12.2311 25.4124L12.19 25.4475L11.1361 26.362L11.086 26.4061L11.0439 26.354C10.3281 25.4455 9.23591 24.2995 7.04709 24.2994C5.94861 24.2994 4.96537 24.5872 4.25856 25.1377C3.55357 25.6868 3.11955 26.4998 3.11948 27.5612Z" fill="white"/>
<path d="M2.93219 27.3538C2.98573 26.3333 3.43543 25.5356 4.14045 24.9864C4.88924 24.4032 5.9176 24.107 7.0473 24.107C9.23705 24.107 10.3751 25.2199 11.1093 26.1304L11.9746 25.3774C11.6292 24.8883 10.0676 23.0321 7.1576 23.0321C3.98912 23.0323 1.65875 24.9378 1.65875 27.6175L1.66477 27.8661C1.781 30.3893 3.64703 31.5412 4.36506 31.9401L4.39013 31.9532C5.1611 32.363 6.38694 32.8812 7.48348 33.3199C8.03439 33.5402 8.9669 33.8924 9.75963 34.5081C10.5564 35.127 11.2225 36.021 11.2226 37.3197C11.2226 38.6042 10.7081 39.6462 9.87193 40.3639C9.03773 41.0797 7.89031 41.4679 6.63118 41.4679C4.18127 41.4678 2.51204 39.8423 1.76705 38.559L0.811467 39.2418C1.30109 40.1068 2.99288 42.5147 6.49281 42.5147L6.83172 42.5077C10.293 42.3661 12.491 40.0596 12.491 37.3197C12.4908 34.4888 10.2289 33.2458 9.78469 32.996C9.57042 32.8755 8.93368 32.5952 8.17134 32.268C7.40927 31.9409 6.54367 31.5763 5.8601 31.2834C5.17803 30.991 4.44428 30.6228 3.88176 30.046C3.3147 29.4645 2.92718 28.6765 2.92718 27.5613L2.93219 27.3538ZM5.36677 42.5548C5.51724 42.5785 5.67146 42.5988 5.83002 42.613C5.67146 42.5988 5.51724 42.5785 5.36677 42.5548ZM4.75712 42.4295C4.80526 42.4417 4.85343 42.4552 4.90251 42.4666C4.85343 42.4552 4.80526 42.4417 4.75712 42.4295ZM4.43726 42.3402C4.50252 42.3605 4.56867 42.3799 4.63579 42.3984C4.56867 42.3799 4.50251 42.3605 4.43726 42.3402ZM4.21766 42.267C4.26512 42.2837 4.31255 42.3014 4.36105 42.3172C4.31256 42.3014 4.26512 42.2837 4.21766 42.267ZM3.94392 42.1637C3.99092 42.1827 4.03822 42.2018 4.08631 42.2199C4.03822 42.2018 3.99091 42.1827 3.94392 42.1637ZM3.7133 42.0655C3.75857 42.0859 3.80431 42.106 3.85067 42.1256C3.80431 42.106 3.75857 42.0859 3.7133 42.0655ZM3.4907 41.9592C3.52503 41.9763 3.55898 41.9946 3.59398 42.0113C3.55899 41.9946 3.52502 41.9763 3.4907 41.9592ZM3.18588 41.7978C3.24459 41.8312 3.30446 41.8639 3.36536 41.896C3.30446 41.8639 3.24459 41.8312 3.18588 41.7978ZM2.9713 41.6694C3.03326 41.708 3.0962 41.7465 3.16081 41.7837C3.09621 41.7465 3.03325 41.708 2.9713 41.6694ZM2.59729 41.4177C2.64519 41.4525 2.69392 41.487 2.74368 41.521C2.69393 41.487 2.64519 41.4525 2.59729 41.4177ZM2.43184 41.2934C2.47074 41.3235 2.50993 41.3539 2.55016 41.3836C2.50994 41.3539 2.47074 41.3235 2.43184 41.2934ZM5.80094 41.2723C5.89223 41.287 5.98475 41.2995 6.07869 41.3094C5.98475 41.2995 5.89223 41.287 5.80094 41.2723ZM2.15409 41.0628C2.22618 41.1251 2.29926 41.189 2.37669 41.2503C2.29927 41.189 2.22616 41.1252 2.15409 41.0628ZM5.33468 41.1761C5.43734 41.2026 5.54212 41.2248 5.64853 41.2453C5.54212 41.2248 5.43734 41.2026 5.33468 41.1761ZM9.30339 40.6216C9.18866 40.6934 9.06935 40.7596 8.94643 40.8211C9.06937 40.7596 9.18864 40.6934 9.30339 40.6216ZM5.13815 41.1209C5.17298 41.1314 5.20814 41.1412 5.24343 41.151C5.20814 41.1412 5.17298 41.1314 5.13815 41.1209ZM1.82019 40.7549C1.88777 40.8218 1.95729 40.8897 2.03076 40.9565C1.9573 40.8897 1.88776 40.8218 1.82019 40.7549ZM4.57764 40.9154C4.58959 40.9205 4.60172 40.9253 4.61373 40.9304C4.60171 40.9253 4.58959 40.9205 4.57764 40.9154ZM4.21766 40.7439C4.28139 40.7773 4.34741 40.807 4.41319 40.8382C4.3474 40.807 4.28139 40.7773 4.21766 40.7439ZM1.54545 40.4672C1.60515 40.5334 1.66644 40.6015 1.73195 40.6687C1.66645 40.6015 1.60513 40.5335 1.54545 40.4672ZM3.88376 40.5534C3.94759 40.5928 4.0141 40.6285 4.08029 40.6657C4.01409 40.6285 3.9476 40.5928 3.88376 40.5534ZM3.57794 40.3508C3.62935 40.3874 3.68319 40.4209 3.73636 40.4561C3.68318 40.4209 3.62936 40.3874 3.57794 40.3508ZM1.32184 40.2065C1.37108 40.2668 1.42198 40.3289 1.47626 40.391C1.42199 40.3289 1.37106 40.2668 1.32184 40.2065ZM3.28314 40.1252C3.32145 40.1563 3.36101 40.1861 3.40046 40.2165C3.361 40.1861 3.32146 40.1563 3.28314 40.1252ZM10.3332 39.6881C10.2023 39.8605 10.0559 40.02 9.897 40.1673C10.0557 40.0202 10.2024 39.8613 10.3332 39.6891V39.6881ZM1.08019 39.8936C1.13012 39.9625 1.18323 40.0341 1.24063 40.1072C1.18325 40.0341 1.1301 39.9625 1.08019 39.8936ZM3.01241 39.8936C3.05429 39.9319 3.09827 39.9684 3.14176 40.0059C3.09826 39.9684 3.0543 39.9319 3.01241 39.8936ZM2.76073 39.6489C2.79712 39.6863 2.83519 39.7224 2.87303 39.7592C2.83518 39.7224 2.79713 39.6863 2.76073 39.6489ZM0.79041 39.4604C0.743896 39.3841 0.704223 39.315 0.671088 39.2549L0.643012 39.2047L0.690139 39.1717L1.75 38.4146L1.77908 38.3926L0.643012 39.2047H0.642009L0.643012 39.2058C0.680865 39.2764 0.730485 39.362 0.79041 39.4604ZM2.53111 39.4003C2.56264 39.4364 2.59552 39.4717 2.62837 39.5076C2.59551 39.4717 2.56265 39.4364 2.53111 39.4003ZM2.32756 39.1556C2.33474 39.1647 2.34236 39.1736 2.34962 39.1827C2.34235 39.1736 2.33474 39.1647 2.32756 39.1556ZM2.14607 38.912C2.15131 38.9194 2.15682 38.9266 2.16211 38.934C2.15682 38.9266 2.15131 38.9194 2.14607 38.912ZM1.96558 38.6402C1.98458 38.6707 2.00474 38.7008 2.02474 38.7315C2.00473 38.7008 1.98458 38.6707 1.96558 38.6402ZM1.84325 38.4357C1.84918 38.4462 1.85625 38.4562 1.8623 38.4668C1.84809 38.4419 1.83268 38.4181 1.81919 38.3936L1.84325 38.4357ZM11.8904 34.7537C11.9362 34.826 11.9807 34.9005 12.0237 34.9773C11.9807 34.9005 11.9362 34.826 11.8904 34.7537ZM11.4702 34.1892C11.554 34.2872 11.636 34.3911 11.7159 34.501C11.636 34.3911 11.5541 34.2872 11.4702 34.1892ZM7.43535 33.4382C6.46495 33.05 5.38772 32.5993 4.61373 32.2139C5.38776 32.5993 6.46496 33.051 7.43535 33.4392C7.57387 33.4946 7.73491 33.5577 7.91063 33.6307C7.99854 33.6672 8.09008 33.7063 8.18437 33.748C8.56164 33.9149 8.98209 34.1254 9.38361 34.3958C8.6811 33.9227 7.92038 33.6322 7.43535 33.4382ZM9.94312 32.9398C10.0028 32.974 10.0766 33.0166 10.1607 33.0692C10.0766 33.0166 10.0028 32.974 9.94312 32.9398ZM8.22147 32.1497C8.48969 32.2648 8.74338 32.3761 8.96949 32.4756C8.74359 32.3761 8.49047 32.2647 8.22248 32.1497C7.86701 31.9971 7.48626 31.8359 7.11248 31.6774C7.48597 31.8361 7.86623 31.9972 8.22147 32.1497ZM12.1471 25.3985L12.104 25.4356L11.1444 26.2698L11.0942 26.3139L11.0521 26.2618C11.0306 26.2348 11.0071 26.2089 10.9849 26.1816L11.0942 26.3139L12.1481 25.3995C12.1421 25.3895 12.1327 25.3781 12.123 25.3634L12.1471 25.3985ZM10.6129 25.7514C10.5941 25.7314 10.5741 25.7122 10.5548 25.6923C10.5741 25.7122 10.5941 25.7314 10.6129 25.7514ZM10.4445 25.58C10.4231 25.5591 10.4012 25.5386 10.3793 25.5178C10.4012 25.5386 10.4231 25.5591 10.4445 25.58ZM10.254 25.4015C10.2191 25.3705 10.1829 25.3407 10.1467 25.3102C10.1829 25.3407 10.2191 25.3705 10.254 25.4015ZM11.4813 24.6184C11.8039 24.9292 12.0093 25.1979 12.102 25.3333C12.0085 25.1968 11.8035 24.9284 11.4813 24.6184ZM10.0594 25.237C10.0295 25.213 9.99811 25.1904 9.96719 25.1668C9.99811 25.1904 10.0295 25.213 10.0594 25.237ZM4.21967 25.0876L4.21867 25.0866L4.21967 25.0876ZM9.83583 25.0696C9.80149 25.0453 9.76605 25.0221 9.73055 24.9984C9.76606 25.0221 9.80148 25.0453 9.83583 25.0696ZM9.61323 24.9202C9.56101 24.8877 9.50651 24.8578 9.4518 24.8269C9.50651 24.8578 9.561 24.8877 9.61323 24.9202ZM9.36657 24.7778C9.32734 24.7568 9.28675 24.7377 9.24624 24.7176C9.28676 24.7377 9.32733 24.7568 9.36657 24.7778ZM9.0838 24.6394C9.05074 24.6247 9.01642 24.6124 8.98253 24.5983C9.01642 24.6124 9.05074 24.6247 9.0838 24.6394ZM11.4311 24.5712C11.3725 24.5161 11.3105 24.4597 11.2446 24.4028C11.3104 24.4598 11.3726 24.5161 11.4311 24.5712ZM8.80605 24.5271C8.75284 24.5077 8.6978 24.4917 8.64261 24.474C8.69781 24.4917 8.75284 24.5077 8.80605 24.5271ZM8.49922 24.4279C8.44385 24.412 8.38711 24.3988 8.32977 24.3847C8.38711 24.3988 8.44385 24.412 8.49922 24.4279ZM11.2115 24.3757C11.1472 24.3208 11.0801 24.2648 11.009 24.2093C11.08 24.2648 11.1472 24.3208 11.2115 24.3757ZM8.17234 24.3466C8.09757 24.331 8.0208 24.3191 7.94272 24.3065C8.0208 24.3191 8.09757 24.331 8.17234 24.3466ZM7.8224 24.2865C7.76717 24.2789 7.71081 24.2754 7.65394 24.2694C7.71081 24.2754 7.76717 24.2789 7.8224 24.2865ZM10.8937 24.122C10.8413 24.083 10.7879 24.0434 10.7323 24.0047C10.7879 24.0435 10.8414 24.083 10.8937 24.122ZM10.5949 23.9125C10.5328 23.8717 10.4692 23.831 10.4034 23.7911C10.4692 23.831 10.5328 23.8717 10.5949 23.9125ZM10.2118 23.6818C10.1555 23.6505 10.0993 23.6169 10.0404 23.5866C10.0993 23.6169 10.1555 23.6504 10.2118 23.6818ZM9.9732 23.5525C9.86886 23.5004 9.76034 23.451 9.64833 23.4031C9.76031 23.451 9.8689 23.5003 9.9732 23.5525ZM9.54204 23.358C9.50996 23.345 9.47747 23.3325 9.44478 23.3199C9.47746 23.3325 9.50996 23.3449 9.54204 23.358ZM9.35754 23.2868C9.31031 23.2694 9.26261 23.2521 9.21415 23.2356C9.26261 23.2521 9.31032 23.2694 9.35754 23.2868ZM9.14798 23.2146C9.09125 23.196 9.03389 23.1776 8.97551 23.1604C9.03388 23.1776 9.09125 23.196 9.14798 23.2146ZM8.93841 23.1494C8.87449 23.131 8.80977 23.1129 8.74388 23.0963C8.80976 23.1129 8.8745 23.131 8.93841 23.1494ZM8.68773 23.0832C8.63283 23.0699 8.57753 23.0561 8.52128 23.0441C8.57753 23.0561 8.63284 23.0699 8.68773 23.0832ZM8.34781 23.011C8.32283 23.0064 8.29785 23.0013 8.27261 22.997C8.29785 23.0013 8.32283 23.0064 8.34781 23.011ZM8.07307 22.9669C8.05272 22.9641 8.03241 22.9605 8.01191 22.9579C8.03241 22.9605 8.05272 22.9641 8.07307 22.9669ZM7.82139 22.9368C7.78978 22.9337 7.75811 22.9295 7.72614 22.9268C7.75811 22.9295 7.78978 22.9337 7.82139 22.9368ZM7.1576 22.9037C7.32192 22.9037 7.48196 22.9107 7.6379 22.9218C7.48195 22.9108 7.32192 22.9037 7.1576 22.9037ZM3.18387 27.5613C3.18387 28.6085 3.54425 29.3322 4.06525 29.8665C4.59062 30.4053 5.28437 30.758 5.96037 31.0477C6.63417 31.3365 7.51781 31.7074 8.27261 32.0314C9.02742 32.3554 9.68033 32.6433 9.91003 32.7724C10.3546 33.0224 12.7475 34.3307 12.7477 37.3197C12.7477 40.2195 10.4189 42.6173 6.84275 42.7644L6.49281 42.7714C2.70684 42.7714 0.954703 40.0572 0.530709 39.2659L0.503636 39.2158L0.476562 39.1666L0.568812 39.1005L1.73295 38.2692L1.79211 38.2271L1.85027 38.185L1.92046 38.3113L2.05883 38.55C2.80605 39.7613 4.37687 41.2111 6.63118 41.2112C7.83916 41.2112 8.92384 40.8374 9.70448 40.1673C10.483 39.4989 10.9659 38.53 10.9659 37.3197C10.9658 36.1239 10.3575 35.2985 9.6022 34.7116C8.84285 34.1218 7.94517 33.7807 7.38722 33.5575C6.27877 33.1141 5.02494 32.5853 4.24173 32.1657L4.20764 32.1477V32.1447C3.42561 31.7062 1.40228 30.4234 1.40206 27.6175C1.40206 24.7527 3.89491 22.7756 7.1576 22.7754C10.4373 22.7754 12.0804 25.0368 12.2584 25.3333L12.3145 25.4255L12.2734 25.4616L12.2323 25.4967L12.2313 25.4957L11.1785 26.4102L11.0782 26.4984L10.994 26.3942C10.3276 25.5483 9.34012 24.5039 7.43936 24.3767L7.0473 24.3637C5.95923 24.3637 4.99068 24.6484 4.29788 25.1879C3.60867 25.7247 3.18394 26.5194 3.18387 27.5613ZM2.79582 41.5561C2.84773 41.5908 2.90035 41.6256 2.95425 41.6594C2.90036 41.6255 2.84772 41.5909 2.79582 41.5561ZM0.906724 39.6439C0.954471 39.7165 1.0074 39.7932 1.06515 39.8736C1.00742 39.7932 0.954456 39.7165 0.906724 39.6439ZM0.79041 39.4604C0.82004 39.5091 0.852456 39.5607 0.887672 39.6149C0.852465 39.5607 0.82003 39.5091 0.79041 39.4604Z" fill="white"/>
</svg>
