<svg width="1591" height="382" viewBox="0 0 1591 382" fill="none" xmlns="http://www.w3.org/2000/svg">
<path d="M1073.08 250.696C1062.63 250.696 1053.63 248.578 1046.08 244.342C1038.58 240.062 1032.8 234.017 1028.74 226.207C1024.68 218.353 1022.65 209.065 1022.65 198.342C1022.65 187.885 1024.68 178.707 1028.74 170.808C1032.8 162.91 1038.51 156.755 1045.88 152.342C1053.29 147.93 1061.99 145.723 1071.96 145.723C1078.67 145.723 1084.91 146.804 1090.69 148.967C1096.51 151.085 1101.59 154.284 1105.91 158.564C1110.28 162.844 1113.68 168.227 1116.11 174.713C1118.53 181.156 1119.75 188.701 1119.75 197.349V205.093H1033.9V187.62H1093.2C1093.2 183.56 1092.32 179.964 1090.56 176.831C1088.79 173.699 1086.34 171.25 1083.21 169.485C1080.12 167.676 1076.53 166.771 1072.42 166.771C1068.14 166.771 1064.35 167.764 1061.04 169.749C1057.77 171.691 1055.21 174.316 1053.36 177.626C1051.51 180.891 1050.56 184.531 1050.51 188.547V205.16C1050.51 210.19 1051.44 214.536 1053.29 218.198C1055.19 221.861 1057.86 224.685 1061.3 226.67C1064.74 228.656 1068.83 229.649 1073.55 229.649C1076.68 229.649 1079.55 229.208 1082.15 228.325C1084.76 227.443 1086.98 226.119 1088.84 224.354C1090.69 222.589 1092.1 220.427 1093.07 217.868L1119.15 219.588C1117.83 225.854 1115.11 231.326 1111.01 236.003C1106.95 240.636 1101.7 244.254 1095.26 246.858C1088.86 249.417 1081.47 250.696 1073.08 250.696Z" fill="white"/>
<path d="M955.223 248.709V147.045H982.558V164.784H983.617C985.47 158.474 988.581 153.708 992.949 150.487C997.318 147.222 1002.35 145.589 1008.04 145.589C1009.45 145.589 1010.97 145.678 1012.61 145.854C1014.24 146.031 1015.67 146.273 1016.91 146.582V171.601C1015.59 171.204 1013.75 170.851 1011.42 170.542C1009.08 170.233 1006.94 170.079 1005 170.079C1000.85 170.079 997.141 170.983 993.876 172.792C990.655 174.557 988.096 177.028 986.198 180.205C984.345 183.382 983.418 187.045 983.418 191.192V248.709H955.223Z" fill="white"/>
<path d="M886.846 250.696C876.565 250.696 867.674 248.512 860.173 244.144C852.716 239.731 846.957 233.598 842.898 225.744C838.838 217.845 836.809 208.69 836.809 198.276C836.809 187.774 838.838 178.596 842.898 170.742C846.957 162.844 852.716 156.71 860.173 152.342C867.674 147.93 876.565 145.723 886.846 145.723C897.127 145.723 905.996 147.93 913.453 152.342C920.955 156.71 926.735 162.844 930.795 170.742C934.854 178.596 936.884 187.774 936.884 198.276C936.884 208.69 934.854 217.845 930.795 225.744C926.735 233.598 920.955 239.731 913.453 244.144C905.996 248.512 897.127 250.696 886.846 250.696ZM886.979 228.855C891.656 228.855 895.561 227.531 898.694 224.883C901.827 222.192 904.187 218.529 905.776 213.896C907.408 209.263 908.225 203.99 908.225 198.078C908.225 192.165 907.408 186.892 905.776 182.259C904.187 177.626 901.827 173.963 898.694 171.272C895.561 168.58 891.656 167.234 886.979 167.234C882.257 167.234 878.286 168.58 875.065 171.272C871.888 173.963 869.483 177.626 867.85 182.259C866.262 186.892 865.468 192.165 865.468 198.078C865.468 203.99 866.262 209.263 867.85 213.896C869.483 218.529 871.888 222.192 875.065 224.883C878.286 227.531 882.257 228.855 886.979 228.855Z" fill="white"/>
<path d="M768.773 288.953C759.64 288.953 751.807 287.695 745.277 285.18C738.791 282.709 733.628 279.334 729.789 275.053C725.95 270.773 723.457 265.964 722.31 260.625L748.388 257.117C749.182 259.146 750.44 261.044 752.16 262.809C753.881 264.574 756.154 265.986 758.978 267.045C761.846 268.148 765.332 268.699 769.435 268.699C775.569 268.699 780.621 267.199 784.592 264.199C788.608 261.242 790.615 256.278 790.615 249.307V230.708H789.424C788.188 233.532 786.335 236.201 783.864 238.717C781.393 241.232 778.216 243.283 774.333 244.872C770.45 246.46 765.817 247.255 760.434 247.255C752.8 247.255 745.851 245.49 739.585 241.96C733.363 238.386 728.399 232.936 724.693 225.611C721.03 218.243 719.199 208.932 719.199 197.68C719.199 186.164 721.075 176.545 724.825 168.823C728.576 161.101 733.562 155.321 739.783 151.482C746.049 147.643 752.911 145.723 760.368 145.723C766.06 145.723 770.825 146.694 774.664 148.636C778.503 150.533 781.592 152.916 783.93 155.784C786.313 158.608 788.144 161.388 789.424 164.123H790.483V147.047H818.48V249.704C818.48 258.352 816.362 265.589 812.126 271.413C807.89 277.238 802.022 281.606 794.52 284.518C787.063 287.475 778.481 288.953 768.773 288.953ZM769.369 226.075C773.914 226.075 777.753 224.95 780.886 222.699C784.063 220.405 786.49 217.139 788.166 212.904C789.887 208.623 790.748 203.505 790.748 197.548C790.748 191.591 789.909 186.429 788.233 182.06C786.556 177.648 784.129 174.228 780.952 171.801C777.775 169.374 773.914 168.161 769.369 168.161C764.736 168.161 760.831 169.418 757.654 171.934C754.477 174.405 752.072 177.846 750.44 182.259C748.807 186.671 747.991 191.768 747.991 197.548C747.991 203.417 748.807 208.491 750.44 212.771C752.116 217.007 754.521 220.294 757.654 222.633C760.831 224.928 764.736 226.075 769.369 226.075Z" fill="white"/>
<path d="M634.443 286.835C630.869 286.835 627.515 286.548 624.383 285.975C621.294 285.445 618.735 284.761 616.705 283.923L623.059 262.875C626.368 263.89 629.347 264.442 631.994 264.53C634.686 264.618 637.002 264 638.944 262.677C640.929 261.353 642.54 259.102 643.776 255.926L645.43 251.623L608.961 147.047H638.613L659.66 221.707H660.719L681.966 147.047H711.816L672.302 259.698C670.405 265.17 667.824 269.935 664.558 273.995C661.337 278.098 657.256 281.253 652.314 283.459C647.372 285.71 641.415 286.835 634.443 286.835Z" fill="white"/>
<path d="M502.353 248.711V113.159H530.548V164.123H531.409C532.644 161.388 534.431 158.608 536.77 155.784C539.153 152.916 542.241 150.533 546.036 148.636C549.875 146.694 554.64 145.723 560.333 145.723C567.746 145.723 574.585 147.665 580.851 151.548C587.116 155.387 592.125 161.189 595.875 168.955C599.626 176.677 601.501 186.362 601.501 198.011C601.501 209.351 599.67 218.927 596.008 226.737C592.389 234.503 587.447 240.393 581.182 244.409C574.96 248.38 567.988 250.365 560.266 250.365C554.795 250.365 550.14 249.461 546.301 247.652C542.506 245.843 539.395 243.57 536.968 240.835C534.542 238.055 532.688 235.253 531.409 232.429H530.151V248.711H502.353ZM529.953 197.879C529.953 203.924 530.791 209.197 532.468 213.698C534.144 218.198 536.571 221.706 539.748 224.221C542.925 226.692 546.786 227.928 551.331 227.928C555.92 227.928 559.803 226.67 562.98 224.155C566.157 221.596 568.562 218.066 570.194 213.565C571.871 209.02 572.71 203.792 572.71 197.879C572.71 192.01 571.893 186.848 570.261 182.391C568.628 177.935 566.223 174.449 563.046 171.934C559.869 169.418 555.964 168.161 551.331 168.161C546.742 168.161 542.859 169.374 539.682 171.801C536.549 174.228 534.144 177.67 532.468 182.126C530.791 186.583 529.953 191.834 529.953 197.879Z" fill="white"/>
<path d="M451.075 205.425V147.047H479.271V248.711H452.201V230.245H451.142C448.847 236.202 445.03 240.989 439.691 244.607C434.396 248.226 427.932 250.035 420.298 250.035C413.503 250.035 407.524 248.49 402.361 245.402C397.199 242.313 393.161 237.923 390.249 232.23C387.381 226.538 385.925 219.721 385.881 211.779V147.047H414.077V206.748C414.121 212.749 415.731 217.493 418.908 220.979C422.085 224.464 426.343 226.207 431.682 226.207C435.08 226.207 438.257 225.435 441.213 223.891C444.17 222.302 446.553 219.964 448.362 216.875C450.215 213.786 451.119 209.969 451.075 205.425Z" fill="white"/>
<path d="M309.616 248.709V147.045H336.952V164.784H338.011C339.864 158.474 342.975 153.708 347.343 150.487C351.711 147.222 356.742 145.589 362.434 145.589C363.846 145.589 365.368 145.678 367.001 145.854C368.633 146.031 370.067 146.273 371.303 146.582V171.601C369.979 171.204 368.148 170.851 365.809 170.542C363.471 170.233 361.331 170.079 359.389 170.079C355.241 170.079 351.535 170.983 348.27 172.792C345.048 174.557 342.489 177.028 340.592 180.205C338.739 183.382 337.812 187.045 337.812 191.192V248.709H309.616Z" fill="white"/>
<path d="M244.553 250.696C234.095 250.696 225.094 248.578 217.548 244.342C210.047 240.062 204.267 234.017 200.207 226.207C196.148 218.353 194.118 209.065 194.118 198.342C194.118 187.885 196.148 178.707 200.207 170.808C204.267 162.91 209.981 156.755 217.35 152.342C224.763 147.93 233.455 145.723 243.428 145.723C250.135 145.723 256.378 146.804 262.159 148.967C267.983 151.085 273.058 154.284 277.382 158.564C281.75 162.844 285.148 168.227 287.575 174.713C290.002 181.156 291.215 188.701 291.215 197.349V205.093H205.37V187.62H264.674C264.674 183.56 263.791 179.964 262.026 176.831C260.261 173.699 257.812 171.25 254.68 169.485C251.591 167.676 247.995 166.771 243.891 166.771C239.611 166.771 235.816 167.764 232.507 169.749C229.242 171.691 226.682 174.316 224.829 177.626C222.976 180.891 222.027 184.531 221.983 188.547V205.16C221.983 210.19 222.91 214.536 224.763 218.198C226.66 221.861 229.33 224.685 232.772 226.67C236.213 228.656 240.295 229.649 245.016 229.649C248.149 229.649 251.017 229.208 253.621 228.325C256.224 227.443 258.452 226.119 260.305 224.354C262.159 222.589 263.571 220.427 264.541 217.868L290.619 219.588C289.296 225.854 286.582 231.326 282.478 236.003C278.419 240.636 273.168 244.254 266.726 246.858C260.328 249.417 252.937 250.696 244.553 250.696Z" fill="white"/>
<path d="M110.112 189.936V248.711H81.916V113.159H109.318V164.984H110.509C112.803 158.983 116.51 154.284 121.628 150.886C126.747 147.444 133.167 145.723 140.889 145.723C147.949 145.723 154.104 147.268 159.355 150.356C164.65 153.401 168.754 157.791 171.666 163.528C174.622 169.22 176.078 176.037 176.034 183.98V248.711H147.839V189.01C147.883 182.744 146.294 177.868 143.073 174.382C139.896 170.897 135.439 169.154 129.703 169.154C125.864 169.154 122.467 169.97 119.51 171.603C116.598 173.235 114.304 175.618 112.627 178.751C110.994 181.84 110.156 185.568 110.112 189.936Z" fill="white"/>
<path d="M61.3629 147.045V168.225H0.139648V147.045H61.3629ZM14.039 122.688H42.2348V217.469C42.2348 220.072 42.6319 222.102 43.4261 223.558C44.2204 224.97 45.3235 225.963 46.7355 226.536C48.1916 227.11 49.8684 227.397 51.7657 227.397C53.0895 227.397 54.4132 227.287 55.737 227.066C57.0607 226.801 58.0756 226.603 58.7816 226.47L63.2162 247.452C61.8042 247.893 59.8185 248.4 57.2593 248.974C54.7001 249.592 51.5893 249.967 47.9269 250.099C41.1317 250.364 35.1748 249.459 30.0563 247.385C24.982 245.312 21.0328 242.09 18.2088 237.722C15.3848 233.354 13.9949 227.838 14.039 221.175V122.688Z" fill="white"/>
<path d="M1226.54 294.858L1218.93 294.858L1218.93 73.7842L1226.54 73.7842L1226.54 294.858Z" fill="white"/>
<path d="M1491.88 203.159C1482.23 203.159 1473.91 200.872 1466.92 196.297C1459.93 191.687 1454.55 185.077 1450.77 176.468C1446.98 167.823 1445.11 157.432 1445.15 145.293C1445.18 133.154 1447.07 122.852 1450.82 114.387C1454.6 105.886 1459.97 99.4208 1466.92 94.9903C1473.91 90.5238 1482.23 88.2905 1491.88 88.2905C1501.54 88.2905 1509.86 90.5238 1516.85 94.9903C1523.87 99.4208 1529.27 105.886 1533.05 114.387C1536.84 122.888 1538.71 133.19 1538.67 145.293C1538.67 157.468 1536.78 167.877 1533 176.522C1529.22 185.167 1523.83 191.777 1516.85 196.351C1509.89 200.89 1501.57 203.159 1491.88 203.159ZM1491.88 181.277C1497.65 181.277 1502.31 178.341 1505.88 172.47C1509.44 166.563 1511.21 157.504 1511.17 145.293C1511.17 137.296 1510.36 130.704 1508.74 125.518C1507.12 120.295 1504.87 116.404 1501.99 113.847C1499.11 111.289 1495.74 110.011 1491.88 110.011C1486.16 110.011 1481.53 112.91 1478 118.71C1474.47 124.473 1472.68 133.334 1472.65 145.293C1472.61 153.397 1473.39 160.115 1474.97 165.446C1476.59 170.777 1478.86 174.757 1481.78 177.387C1484.7 179.98 1488.07 181.277 1491.88 181.277Z" fill="white"/>
<path d="M1429.28 89.8042V200.459H1402.59V114.766H1401.94L1377.19 129.895V106.77L1404.48 89.8042H1429.28Z" fill="white"/>
<path d="M1530.23 244.408C1530.07 242.872 1529.37 241.677 1528.16 240.821C1526.95 239.965 1525.38 239.537 1523.44 239.537C1522.08 239.537 1520.92 239.743 1519.94 240.153C1518.97 240.563 1518.23 241.12 1517.71 241.823C1517.2 242.527 1516.93 243.33 1516.92 244.232C1516.92 244.982 1517.09 245.633 1517.43 246.184C1517.78 246.735 1518.26 247.204 1518.85 247.59C1519.45 247.966 1520.11 248.282 1520.84 248.54C1521.57 248.798 1522.3 249.015 1523.04 249.191L1526.41 250.035C1527.77 250.351 1529.08 250.779 1530.34 251.318C1531.6 251.857 1532.73 252.537 1533.73 253.358C1534.74 254.178 1535.53 255.169 1536.12 256.329C1536.71 257.49 1537 258.849 1537 260.409C1537 262.518 1536.46 264.376 1535.38 265.982C1534.3 267.577 1532.74 268.825 1530.71 269.728C1528.68 270.618 1526.22 271.064 1523.34 271.064C1520.54 271.064 1518.1 270.63 1516.04 269.763C1513.99 268.895 1512.38 267.629 1511.22 265.965C1510.07 264.3 1509.45 262.272 1509.36 259.881H1515.78C1515.87 261.135 1516.26 262.179 1516.94 263.011C1517.62 263.843 1518.5 264.464 1519.59 264.875C1520.69 265.285 1521.93 265.49 1523.29 265.49C1524.7 265.49 1525.95 265.279 1527.01 264.857C1528.09 264.423 1528.94 263.825 1529.54 263.064C1530.15 262.29 1530.46 261.387 1530.48 260.356C1530.46 259.418 1530.19 258.644 1529.65 258.035C1529.11 257.414 1528.35 256.898 1527.38 256.487C1526.42 256.065 1525.3 255.69 1524.01 255.362L1519.91 254.307C1516.94 253.545 1514.6 252.391 1512.88 250.843C1511.16 249.284 1510.31 247.215 1510.31 244.637C1510.31 242.515 1510.88 240.657 1512.03 239.063C1513.19 237.468 1514.77 236.232 1516.76 235.353C1518.75 234.462 1521.01 234.016 1523.53 234.016C1526.09 234.016 1528.33 234.462 1530.25 235.353C1532.18 236.232 1533.7 237.457 1534.8 239.028C1535.9 240.587 1536.47 242.38 1536.51 244.408H1530.23Z" fill="white"/>
<path d="M1478.45 270.519V234.509H1491.95C1494.72 234.509 1497.04 234.99 1498.92 235.951C1500.81 236.912 1502.23 238.26 1503.19 239.995C1504.16 241.718 1504.65 243.728 1504.65 246.026C1504.65 248.335 1504.16 250.34 1503.17 252.039C1502.2 253.727 1500.76 255.034 1498.87 255.96C1496.97 256.875 1494.63 257.332 1491.87 257.332H1482.25V251.916H1490.99C1492.61 251.916 1493.93 251.694 1494.96 251.248C1495.99 250.791 1496.76 250.129 1497.25 249.261C1497.75 248.382 1498 247.304 1498 246.026C1498 244.748 1497.75 243.658 1497.25 242.755C1496.74 241.841 1495.98 241.15 1494.94 240.681C1493.91 240.2 1492.58 239.96 1490.95 239.96H1484.97V270.519H1478.45ZM1497.05 254.202L1505.97 270.519H1498.69L1489.93 254.202H1497.05Z" fill="white"/>
<path d="M1447.25 270.519H1440.29L1452.97 234.509H1461.02L1473.71 270.519H1466.75L1457.13 241.894H1456.85L1447.25 270.519ZM1447.48 256.4H1466.47V261.64H1447.48V256.4Z" fill="white"/>
<path d="M1412.55 270.519V234.509H1435.97V239.977H1419.07V249.754H1434.76V255.222H1419.07V265.051H1436.11V270.519H1412.55Z" fill="white"/>
<path d="M1375.23 234.509H1382.59L1391.4 250.439H1391.76L1400.56 234.509H1407.93L1394.83 257.086V270.519H1388.33V257.086L1375.23 234.509Z" fill="white"/>
<path d="M1576.14 276.505L1589.45 250.092C1590.46 248.092 1590.35 245.762 1589.17 243.859C1587.98 241.956 1585.93 240.821 1583.68 240.821H1558.05V225.909C1558.05 220.964 1554 216.94 1549.02 216.94H1366.84C1361.86 216.94 1357.81 220.964 1357.81 225.909V240.821H1332.18C1329.93 240.821 1327.88 241.956 1326.69 243.859C1325.51 245.761 1325.4 248.092 1326.41 250.092L1339.72 276.505L1326.41 302.917C1325.4 304.918 1325.51 307.248 1326.69 309.151C1327.88 311.053 1329.93 312.189 1332.18 312.189H1393.65H1393.65C1395.82 312.185 1397.52 310.44 1397.52 308.345V288.309H1414.13C1416.27 288.309 1418.01 286.587 1418.01 284.465C1418.01 282.342 1416.27 280.621 1414.13 280.621H1365.55V225.909C1365.55 225.203 1366.13 224.628 1366.84 224.628H1549.02C1549.73 224.628 1550.31 225.203 1550.31 225.909V280.621H1432.21C1430.07 280.621 1428.33 282.342 1428.33 284.465C1428.33 286.587 1430.07 288.309 1432.21 288.309H1518.34V308.345C1518.34 310.459 1520.06 312.185 1522.21 312.189H1522.21H1583.68C1585.93 312.189 1587.98 311.053 1589.17 309.151C1590.35 307.248 1590.46 304.918 1589.45 302.917L1576.14 276.505ZM1346.93 279.369C1347.84 277.575 1347.84 275.434 1346.93 273.64L1334.27 248.508H1357.81V284.433C1357.8 285.643 1358.36 286.809 1359.38 287.554L1382.06 304.501H1334.27L1346.93 279.369ZM1389.78 300.641L1373.27 288.309H1389.78V300.641ZM1542.59 288.309L1526.08 300.641V288.309H1542.59ZM1533.8 304.501L1556.49 287.551C1557.49 286.811 1558.06 285.659 1558.05 284.438V248.509H1581.59L1568.93 273.64C1568.02 275.434 1568.02 277.576 1568.93 279.37L1581.59 304.502H1533.8V304.501Z" fill="white"/>
<path d="M1457.93 0.116211C1458.54 0.116211 1459.1 0.48672 1459.33 1.05352L1467.54 20.7966L1488.85 22.5001C1489.46 22.5492 1489.99 22.9643 1490.18 23.549C1490.37 24.1343 1490.19 24.7778 1489.72 25.1781L1473.48 39.0816L1478.44 59.881C1478.59 60.4786 1478.36 61.1035 1477.86 61.4655C1477.36 61.8272 1476.69 61.8532 1476.17 61.5324L1457.93 50.3888L1439.69 61.5324C1439.16 61.8532 1438.49 61.8272 1437.99 61.4655C1437.49 61.1035 1437.27 60.4786 1437.41 59.881L1442.36 39.0816L1426.13 25.1781C1425.66 24.7778 1425.48 24.1343 1425.67 23.549C1425.86 22.9643 1426.39 22.5492 1427 22.5001L1448.3 20.7966L1456.52 1.05352L1456.75 0.666695C1457.04 0.323473 1457.47 0.116211 1457.93 0.116211Z" fill="white"/>
<path d="M1368.87 32.8801C1369.46 32.7227 1370.09 32.9356 1370.47 33.4215L1380.53 46.5042L1396.76 43.5191C1397.37 43.4085 1397.98 43.6738 1398.31 44.1896C1398.65 44.7056 1398.64 45.3732 1398.3 45.8806L1388.96 59.4864L1396.82 74.0083C1397.11 74.5489 1397.05 75.2135 1396.66 75.6909C1396.28 76.1686 1395.64 76.3655 1395.05 76.1926L1379.21 71.5256L1367.84 83.4839C1367.41 83.9285 1366.76 84.0766 1366.19 83.8563C1365.62 83.636 1365.23 83.0916 1365.21 82.4779L1364.75 65.9748L1349.87 58.8556C1349.32 58.59 1348.98 58.0136 1349.01 57.3994C1349.04 56.7853 1349.44 56.2501 1350.02 56.0435L1365.56 50.5167L1367.74 34.1513L1367.87 33.716C1368.06 33.3119 1368.42 32.9992 1368.87 32.8801Z" fill="white"/>
<path d="M1546.99 32.8801C1546.39 32.7227 1545.76 32.9356 1545.39 33.4215L1535.32 46.5042L1519.09 43.5191C1518.49 43.4085 1517.88 43.6738 1517.54 44.1896C1517.21 44.7056 1517.21 45.3732 1517.56 45.8806L1526.89 59.4864L1519.03 74.0083C1518.74 74.5489 1518.8 75.2135 1519.19 75.6909C1519.58 76.1686 1520.21 76.3655 1520.8 76.1926L1536.64 71.5256L1548.01 83.4839C1548.44 83.9285 1549.09 84.0766 1549.66 83.8563C1550.24 83.636 1550.62 83.0916 1550.64 82.4779L1551.1 65.9748L1565.98 58.8556C1566.54 58.59 1566.87 58.0136 1566.84 57.3994C1566.81 56.7853 1566.41 56.2501 1565.83 56.0435L1550.29 50.5167L1548.11 34.1513L1547.98 33.716C1547.79 33.3119 1547.43 32.9992 1546.99 32.8801Z" fill="white"/>
</svg>
