<svg width="66" height="66" viewBox="0 0 66 66" fill="none" xmlns="http://www.w3.org/2000/svg">
<path d="M65.538 41.9217V18.9722L59.5914 13.5419L52.9979 20.5241V15.5422H52.0276V21.6194L50.4757 23.2365V18.0671L45.5618 13.5419L39.6804 19.5538L40.3897 20.2632L41.8764 18.7765L43.7517 20.4588V26.1473H43.4283C40.5854 26.1473 38.8378 28.0879 38.8378 30.7378C38.8378 32.0967 39.0335 32.7408 39.2265 33.1947H39.8734C40.0001 32.5523 40.3473 31.9745 40.8551 31.5611C41.3628 31.1477 41.999 30.9247 42.6537 30.9307H43.7517V41.2096C40.3272 42.3729 38.3215 45.3462 37.9355 49.4176L38.3867 49.6785C39.9359 47.8032 41.9416 46.6399 43.7517 46.1888V60.346L43.8822 60.4086L50.0245 54.7853L52.9326 57.5032L53.0604 57.4352V46.4469C54.3541 46.8329 55.5173 47.7379 56.3571 48.9039L65.538 41.9217ZM58.9445 43.3432C57.3926 41.794 55.52 40.9515 53.0604 40.628V21.4943L55.8407 18.5183L58.9445 21.3639V43.3432ZM52.0276 55.3017L50.4757 53.8803V24.1442L52.0249 22.5924L52.0276 55.3017ZM36.3184 38.9484V19.2929L30.369 13.4767L24.2267 19.8772L17.7011 13.4767L11.4935 20.005V17.8714C11.4935 12.3787 8.06904 13.2837 8.06904 9.72604C8.06904 7.46479 9.49048 6.36406 11.2353 5.52424L10.8467 5.13831C5.54687 7.01362 2.70128 9.79127 2.70128 12.8298C2.70128 15.5477 4.76957 15.6754 4.76957 18.8417V26.9219C0.891191 26.9219 0.30957 30.5448 0.30957 31.9662C0.30957 32.806 0.440027 33.5806 0.567766 33.9693H1.08416C1.27984 32.8713 1.92669 32.094 3.28562 32.094H4.76957V42.4381L12.3986 49.0316L18.0245 42.699L25.3899 49.0316L36.3184 38.9484ZM29.6597 44.0552L24.4224 39.5925V21.1682L26.6863 18.9069L29.6597 21.8803V44.0552ZM17.6359 41.5983L16.0188 43.4736L11.4935 39.5925V21.3639L13.9505 18.8417L17.6359 22.5271V41.5983Z" fill="white"/>
</svg>
