<svg width="43" height="43" viewBox="0 0 43 43" fill="none" xmlns="http://www.w3.org/2000/svg">
<path d="M42.2027 21.1275C42.2027 32.701 32.8204 42.0833 21.2468 42.0833C9.67326 42.0833 0.291016 32.701 0.291016 21.1275C0.291016 9.55388 9.67326 0.171631 21.2468 0.171631C32.8204 0.171631 42.2027 9.55388 42.2027 21.1275Z" fill="black"/>
<path d="M14.3389 31.2194V28.2494C15.6189 27.2294 16.8489 26.2094 18.0289 25.1894C19.2289 24.1694 20.3089 23.1594 21.2689 22.1594C22.2289 21.1394 22.9789 20.1494 23.5189 19.1894C24.0789 18.2294 24.3589 17.2994 24.3589 16.3994C24.3589 15.8394 24.2589 15.3294 24.0589 14.8694C23.8589 14.3894 23.5489 14.0094 23.1289 13.7294C22.7089 13.4294 22.1589 13.2794 21.4789 13.2794C20.7789 13.2794 20.1889 13.4394 19.7089 13.7594C19.2489 14.0794 18.8989 14.5094 18.6589 15.0494C18.4189 15.5694 18.2989 16.1594 18.2989 16.8194H14.3689C14.4089 15.2794 14.7489 13.9894 15.3889 12.9494C16.0489 11.9094 16.9089 11.1394 17.9689 10.6394C19.0489 10.1194 20.2589 9.85938 21.5989 9.85938C23.0589 9.85938 24.2989 10.1394 25.3189 10.6994C26.3389 11.2394 27.1089 11.9794 27.6289 12.9194C28.1489 13.8594 28.4089 14.9394 28.4089 16.1594C28.4089 17.0794 28.2389 17.9794 27.8989 18.8594C27.5789 19.7394 27.1289 20.5994 26.5489 21.4394C25.9689 22.2594 25.3089 23.0494 24.5689 23.8094C23.8489 24.5694 23.0889 25.2994 22.2889 25.9994C21.5089 26.6794 20.7389 27.3194 19.9789 27.9194H28.9189V31.2194H14.3389Z" fill="white"/>
</svg>
