<svg width="42" height="43" viewBox="0 0 42 43" fill="none" xmlns="http://www.w3.org/2000/svg">
<path d="M41.9039 21.1275C41.9039 32.701 32.5216 42.0833 20.948 42.0833C9.37443 42.0833 -0.0078125 32.701 -0.0078125 21.1275C-0.0078125 9.55388 9.37443 0.171631 20.948 0.171631C32.5216 0.171631 41.9039 9.55388 41.9039 21.1275Z" fill="black"/>
<path d="M20.8891 31.5794C19.5291 31.5794 18.2791 31.3294 17.1391 30.8294C16.0191 30.3294 15.1091 29.5694 14.4091 28.5494C13.7291 27.5294 13.3691 26.2394 13.3291 24.6794H17.3191C17.3391 25.3394 17.4891 25.9394 17.7691 26.4794C18.0491 26.9994 18.4591 27.4194 18.9991 27.7394C19.5391 28.0394 20.1791 28.1894 20.9191 28.1894C21.6191 28.1894 22.2191 28.0494 22.7191 27.7694C23.2191 27.4894 23.5891 27.1194 23.8291 26.6594C24.0891 26.1994 24.2191 25.6694 24.2191 25.0694C24.2191 24.3494 24.0491 23.7594 23.7091 23.2994C23.3691 22.8194 22.8891 22.4594 22.2691 22.2194C21.6691 21.9594 20.9791 21.8294 20.1991 21.8294H18.6091V18.4994H20.1691C21.1491 18.4994 21.9691 18.2794 22.6291 17.8394C23.3091 17.3794 23.6491 16.6994 23.6491 15.7994C23.6491 15.0394 23.3991 14.4294 22.8991 13.9694C22.4191 13.5094 21.7491 13.2794 20.8891 13.2794C19.9291 13.2794 19.1891 13.5594 18.6691 14.1194C18.1491 14.6794 17.8591 15.3694 17.7991 16.1894H13.8391C13.8991 14.8694 14.2291 13.7394 14.8291 12.7994C15.4291 11.8394 16.2491 11.1094 17.2891 10.6094C18.3291 10.1094 19.5291 9.85938 20.8891 9.85938C22.3491 9.85938 23.5691 10.1194 24.5491 10.6394C25.5491 11.1394 26.3091 11.8194 26.8291 12.6794C27.3491 13.5194 27.6091 14.4494 27.6091 15.4694C27.6091 16.2694 27.4491 16.9894 27.1291 17.6294C26.8291 18.2494 26.4291 18.7694 25.9291 19.1894C25.4291 19.6094 24.8691 19.9194 24.2491 20.1194C25.0291 20.2594 25.7091 20.5594 26.2891 21.0194C26.8891 21.4794 27.3491 22.0694 27.6691 22.7894C28.0091 23.4894 28.1791 24.2994 28.1791 25.2194C28.1791 26.3594 27.8991 27.4194 27.3391 28.3994C26.7791 29.3594 25.9591 30.1294 24.8791 30.7094C23.7991 31.2894 22.4691 31.5794 20.8891 31.5794Z" fill="white"/>
</svg>
