<svg width="57" height="57" viewBox="0 0 57 57" fill="none" xmlns="http://www.w3.org/2000/svg">
<path d="M11.1881 17.3643C9.05804 19.7956 7.409 22.708 6.43171 25.9107L6.38837 26.0754C5.91814 27.7851 5.88131 28.2553 6.32336 26.9422C7.01461 25.0699 7.77521 23.4794 8.65715 21.969L8.57698 22.1164C9.44158 20.7577 10.3604 19.5767 11.381 18.4911L11.368 18.5041C11.7212 18.1682 12.0354 17.7955 12.3041 17.3925L12.3193 17.3686C12.2326 17.1216 12.0441 16.9266 11.8057 16.8356L11.7992 16.8334C11.5608 16.9764 11.3593 17.1519 11.1925 17.36L11.1881 17.3643Z" fill="#9A96AA"/>
<path d="M45.166 18.2657C47.2051 20.7425 48.7284 23.7199 49.5302 26.9833L49.5627 27.135C50.0069 29.0419 50.0827 29.2152 50.3991 29.2152C50.9062 29.2152 50.9604 28.797 50.5941 27.5575C49.5215 23.9063 47.6818 20.762 45.2505 18.1855L45.2613 18.1964L44.3945 17.2819L45.166 18.2657Z" fill="#9A96AA"/>
<path d="M12.0269 19.9885C10.7657 21.6375 9.73857 23.5487 9.04082 25.6138L8.99965 25.7525C8.43841 27.4622 8.29539 28.2835 8.79162 26.992C9.71474 24.6387 10.9586 22.6148 12.4927 20.8487L12.4711 20.8747C13.1233 20.1185 13.2273 19.8714 12.9521 19.5962C12.6769 19.321 12.4971 19.4121 12.0269 19.9863V19.9885Z" fill="#9A96AA"/>
<path d="M44.15 20.7447C45.578 22.7968 46.6766 25.1999 47.3028 27.7873L47.3332 27.9324C47.4112 28.2987 47.6799 28.4807 47.9854 28.3615C48.3105 28.2315 48.3321 27.9433 48.0114 27.044C47.0276 24.3462 45.5866 22.0319 43.7621 20.0816L43.7729 20.0925C43.5519 19.8454 43.7209 20.1315 44.15 20.7447Z" fill="#9A96AA"/>
<path d="M12.4683 22.8163C11.7727 24.0168 11.1876 25.4036 10.7889 26.8663L10.7607 26.9898C10.9406 26.7428 11.1183 26.4589 11.2743 26.162L11.2938 26.123C11.7532 25.3256 12.2126 24.6452 12.711 24.0016L12.6806 24.0428C13.3199 23.176 13.5019 22.8553 13.4109 22.6993C13.1725 22.3461 12.7673 22.3981 12.4683 22.8163Z" fill="#9A96AA"/>
<path d="M43.5631 23.5357C43.8795 24.1533 44.198 24.903 44.4646 25.6766L44.5036 25.8045C44.9218 27.07 45.2208 27.3647 45.6131 26.8749C45.8471 26.5867 45.8471 26.5607 45.4397 25.8457C44.7571 24.6972 44.0702 23.7134 43.3204 22.7838L43.3594 22.8336C43.0171 22.4154 43.0301 22.4804 43.5631 23.5357Z" fill="#9A96AA"/>
<path d="M25.1085 51.2509C25.0717 51.305 25.0479 51.3722 25.0479 51.4459C25.0479 51.5651 25.1085 51.6691 25.1995 51.7319H25.2017C25.3967 51.9269 25.6308 51.94 27.3275 51.8619C28.3676 51.8229 29.4272 51.7449 29.6743 51.6886C30.1033 51.6106 30.1185 51.5976 29.8043 51.5066C29.4944 51.4459 29.1347 51.4069 28.7685 51.4026H28.7641C28.3719 51.3896 27.5247 51.2985 26.8724 51.1945C25.3491 50.9497 25.2797 50.9497 25.1085 51.2509Z" fill="#9A96AA"/>
<path d="M22.7976 52.6464C22.5766 52.7374 22.5766 53.1534 22.7976 53.3246C24.0046 53.6692 25.3914 53.8685 26.8238 53.8685C27.2052 53.8685 27.5844 53.8534 27.9593 53.8274L27.9094 53.8295C29.4133 53.8144 30.8629 53.615 32.2455 53.2553L32.1219 53.2835C32.0938 53.2835 32.0591 53.2835 32.0244 53.2835C31.539 53.2835 31.0623 53.3116 30.5921 53.368L30.6484 53.3615C30.2259 53.3918 29.734 53.4091 29.2399 53.4091C27.6732 53.4091 26.1477 53.2401 24.6785 52.9194L24.8194 52.9454C23.3328 52.6204 23.0056 52.5597 22.7976 52.6507V52.6464Z" fill="#9A96AA"/>
<path d="M20.5952 54.5901C20.4392 54.9823 20.7252 55.2293 21.5985 55.4569C23.3386 55.9206 25.3386 56.1871 27.3994 56.1871C29.0268 56.1871 30.6173 56.0203 32.1515 55.7039L31.9998 55.7299C33.3433 55.4699 33.3043 55.3529 31.9348 55.5566C31.1027 55.6606 30.1384 55.7191 29.159 55.7191C26.8598 55.7191 24.6344 55.394 22.5303 54.7851L22.6993 54.8263C21.0936 54.3539 20.6992 54.3041 20.5952 54.5901Z" fill="#9A96AA"/>
<path d="M25.9406 4.445C23.9709 4.9759 22.3132 6.09404 21.117 7.59573L21.1019 7.61523C19.936 9.10391 19.2318 11.0022 19.2318 13.0651C19.2318 15.4509 20.1722 17.6178 21.7043 19.2127L21.7021 19.2105C22.3652 19.7262 22.8116 20.4912 22.9004 21.3623V21.3753C23.0564 22.2312 23.1453 23.2193 23.1453 24.2248C23.1453 25.2303 23.0564 26.2184 22.8852 27.1762L22.9004 27.0743C21.8928 31.8503 18.5384 35.6619 14.1287 37.2958L14.0333 37.3261L12.6638 37.8462L11.6237 37.558C10.8891 37.3326 10.0418 37.2026 9.16637 37.2026C7.72102 37.2026 6.36018 37.5558 5.16187 38.1799L5.20954 38.156C2.23434 39.6404 0.225586 42.6611 0.225586 46.152C0.225586 49.5801 2.16283 52.5575 5.00368 54.0462L5.05352 54.07C6.2345 54.6876 7.63434 55.0517 9.1187 55.0517C13.2619 55.0517 16.7463 52.2238 17.7431 48.3927L17.7561 48.3298C18.0161 47.2593 18.2372 46.9733 19.6998 45.879C21.0433 44.9039 22.6035 44.1173 24.2829 43.5994L24.3956 43.5691C25.5137 43.2592 26.7987 43.0815 28.1227 43.0815C31.8802 43.0815 35.304 44.5095 37.8804 46.852L37.8696 46.8411C38.3182 47.1922 38.6194 47.7144 38.6757 48.306V48.3146C39.0614 49.9095 39.887 51.2747 41.0182 52.3148L41.0247 52.3191C41.6401 53.0082 42.3812 53.5695 43.2133 53.9704L43.2545 53.9877C44.3249 54.5684 45.5991 54.9086 46.9534 54.9086C47.2091 54.9086 47.4605 54.8956 47.7075 54.874L47.675 54.8761C48.5504 54.8761 49.3934 54.7331 50.1822 54.4687L50.1258 54.4839C53.036 53.4546 55.229 51.0602 55.957 48.0893L55.97 48.0264C56.0892 47.4154 56.1586 46.7133 56.1586 45.996C56.1586 45.2528 56.0849 44.5247 55.944 43.8226L55.9549 43.8919C55.1206 40.8886 52.867 38.5483 49.9806 37.61L49.9156 37.5926C49.1269 37.3651 48.2211 37.2351 47.2828 37.2351C46.494 37.2351 45.7291 37.3283 44.9945 37.5016L45.0617 37.4886C44.7085 37.6316 44.2989 37.714 43.8699 37.714C43.2718 37.714 42.7106 37.5536 42.2295 37.2719L42.2447 37.2806C36.8772 35.2545 33.1305 30.16 33.1305 24.1901C33.1305 23.2475 33.2237 22.3266 33.4014 21.436L33.3862 21.5248L33.6203 20.2983L34.487 19.373C36.0017 17.8822 36.9703 15.8409 37.07 13.5743V13.557C37.0787 13.4075 37.083 13.2341 37.083 13.0564C37.083 8.92189 34.2617 5.44829 30.4392 4.45367L30.3763 4.44067C29.7111 4.27815 28.9462 4.18713 28.1596 4.18713C27.3708 4.18713 26.6037 4.28031 25.867 4.45583L25.9341 4.44283L25.9406 4.445ZM29.7544 9.96202C30.9029 10.5493 31.6743 11.7237 31.6743 13.0802C31.6743 14.0489 31.28 14.9265 30.6429 15.5592C30.1141 16.1551 29.3449 16.53 28.4889 16.53C28.3741 16.53 28.2614 16.5235 28.1487 16.5105L28.1617 16.5127C28.0642 16.5235 27.9515 16.5322 27.8367 16.5322C26.9808 16.5322 26.2137 16.1573 25.6871 15.5657L25.6849 15.5636C25.0392 14.9611 24.6361 14.103 24.6361 13.1539C24.6361 12.9134 24.6621 12.6772 24.712 12.4518L24.7076 12.4735C25.0132 10.8158 26.4455 9.57847 28.1682 9.57847C28.7511 9.57847 29.2994 9.71933 29.7848 9.97069L29.7653 9.96202H29.7544ZM30.4847 30.3096C31.5985 30.8535 32.4783 31.7354 33.0027 32.821L33.0157 32.8535C33.267 33.3454 33.4144 33.9262 33.4144 34.5394C33.4144 34.7128 33.4036 34.884 33.3797 35.0508L33.3819 35.0313C33.4014 35.1808 33.4144 35.3542 33.4144 35.5297C33.4144 36.1971 33.2475 36.8234 32.955 37.3738L32.9658 37.3521C32.2139 38.9015 30.7772 40.0153 29.0589 40.3078L29.0263 40.3121C28.7793 40.3533 28.4933 40.375 28.2029 40.375C26.075 40.375 24.2352 39.1377 23.3663 37.3456L23.3533 37.3131C23.0781 36.7974 22.9156 36.1863 22.9156 35.5362C22.9156 35.3585 22.9286 35.183 22.9524 35.0097L22.9503 35.0292C22.9286 34.8796 22.9178 34.7063 22.9178 34.5286C22.9178 33.9283 23.0586 33.3606 23.3078 32.8557L23.297 32.8774C23.9319 31.5317 25.0587 30.5068 26.4412 30.0192L26.4802 30.0084C26.9114 29.8523 27.4098 29.7635 27.9299 29.7635C28.0902 29.7635 28.2506 29.7722 28.4066 29.7895L28.3871 29.7873C28.4304 29.7852 28.4803 29.7852 28.5323 29.7852C29.2539 29.7852 29.9321 29.978 30.515 30.3139L30.4955 30.3031L30.4847 30.3096ZM10.1285 42.6568C11.0884 42.9536 11.862 43.6124 12.3041 44.4705L12.3128 44.49C12.5706 44.8736 12.7223 45.3459 12.7223 45.853C12.7223 45.9939 12.7115 46.1304 12.6876 46.2647L12.6898 46.2496C12.6508 47.6537 11.7689 48.8412 10.5359 49.3331L10.512 49.3418C10.1307 49.4783 9.6886 49.5585 9.22921 49.5585C8.58346 49.5585 7.97455 49.4025 7.43715 49.1229L7.45882 49.1337C6.39919 48.527 5.69494 47.4024 5.69494 46.113C5.69494 45.996 5.70144 45.879 5.71227 45.7663L5.7101 45.7815C5.75778 44.9407 6.12832 44.1931 6.70039 43.6579L6.70256 43.6557C7.31797 42.9623 8.21075 42.5268 9.20754 42.5268C9.53475 42.5268 9.85112 42.5744 10.1502 42.6611L10.1263 42.6546L10.1285 42.6568ZM48.4746 42.7868C49.337 43.166 50.0305 43.7987 50.4725 44.5918L50.4834 44.6135C50.648 45.0361 50.7434 45.5258 50.7434 46.0372C50.7434 46.6223 50.6199 47.177 50.3945 47.6776L50.4053 47.6516C49.8484 48.7957 48.6956 49.5693 47.3608 49.5693C47.3305 49.5693 47.3001 49.5693 47.2698 49.5671H47.2741C47.2395 49.5693 47.2004 49.5693 47.1614 49.5693C45.3174 49.5693 43.8179 48.0936 43.781 46.2582V46.2539C43.7615 46.1369 43.7485 46.0004 43.7485 45.8617C43.7485 45.3459 43.9067 44.867 44.1776 44.4727L44.1711 44.4813C44.7215 43.3264 45.8808 42.5419 47.2221 42.5419C47.675 42.5419 48.1084 42.6308 48.5028 42.7933L48.4811 42.7846L48.4746 42.7868Z" fill="#9A96AA"/>
</svg>
