<svg width="57" height="57" viewBox="0 0 57 57" fill="none" xmlns="http://www.w3.org/2000/svg">
<path d="M34.5741 18.3214C35.9195 18.9043 37.483 18.2886 38.0647 16.9433C38.6465 15.598 38.0284 14.0357 36.683 13.4515C35.3377 12.8685 33.7742 13.4854 33.1925 14.8296C32.6107 16.1749 33.2288 17.7384 34.5741 18.3214Z" fill="#9A96AA"/>
<path d="M34.1751 24.5318C35.8598 27.1376 38.4172 29.1265 41.4351 30.084L42.7198 28.2527C39.1807 26.7449 36.478 23.664 35.472 19.8898C35.4235 19.7116 35.3023 19.5625 35.1448 19.4789C33.3389 18.5214 31.2663 17.9772 29.0847 17.9772C24.3336 17.9772 20.1764 20.5225 17.91 24.3221L19.5462 25.9607C21.5096 23.184 24.7215 21.3551 28.3696 21.2969L22.5762 32.6644L13.7043 31.0997L12.165 33.7528L23.1337 37.1028C23.3761 37.1779 23.6307 37.2179 23.9094 37.2179C24.8063 37.2179 25.5941 36.7707 26.0789 36.0859L28.7332 32.2874L32.1874 34.2812L29.0362 44.0052L31.3875 45.9783L36.684 34.6084C36.9143 34.1321 36.9991 33.5843 36.9022 33.0256C36.7688 32.3044 36.3568 31.702 35.7992 31.313L31.5208 28.3133L34.1751 24.5318Z" fill="#9A96AA"/>
<path d="M44.8782 43.1059L15.0385 13.2686C18.6988 10.2568 23.3893 8.44726 28.504 8.44726C40.1999 8.44726 49.702 17.9385 49.702 29.6453C49.702 34.7576 47.884 39.4456 44.8782 43.1059ZM28.504 50.8458C16.7959 50.8458 7.29378 41.3558 7.29378 29.6453C7.29378 24.5767 9.07544 19.925 12.0449 16.2768L41.8724 46.0947C38.2243 49.0617 33.5702 50.8458 28.504 50.8458ZM28.4555 3.18713C13.8265 3.18713 1.96094 15.0527 1.96094 29.6877C1.96094 44.3216 13.8265 56.1871 28.4555 56.1871C43.0966 56.1871 54.95 44.3216 54.95 29.6877C54.95 15.0527 43.0966 3.18713 28.4555 3.18713Z" fill="#9A96AA"/>
</svg>
