<svg width="57" height="57" viewBox="0 0 57 57" fill="none" xmlns="http://www.w3.org/2000/svg">
<path d="M18.6599 4.47766C21.2289 1.90747 25.393 1.90391 27.9727 4.45985C30.5512 1.90391 34.7141 1.90747 37.2867 4.47766C39.8628 7.05141 39.8628 11.2333 37.2867 13.8083C37.1608 13.933 31.0453 20.0199 28.7946 22.2611C28.3397 22.7136 27.6069 22.7136 27.152 22.2611C24.9001 20.0199 18.7846 13.933 18.6623 13.8083C16.0826 11.2321 16.0826 7.05141 18.6599 4.47766Z" fill="#9A96AA"/>
<path d="M3.53968 37.8913L11.5044 30.4112C13.3418 28.6854 15.7683 27.7246 18.2898 27.7246H33.8415C35.4913 27.7246 36.8274 29.0619 36.8274 30.7116C36.8274 32.3614 35.4913 33.6963 33.8415 33.6963H22.5679C21.5417 33.6963 20.7091 34.5277 20.7091 35.5539C20.7091 36.5801 21.5417 37.4127 22.5679 37.4127H41.7659C42.184 37.4127 42.5878 37.2725 42.9156 37.0148L51.0015 30.6546C52.2949 29.6368 54.175 29.8565 55.1929 31.1523C56.2119 32.4504 55.9886 34.3246 54.6928 35.3449L42.254 45.1327C41.7077 45.5603 41.0568 45.7717 40.4107 45.7717C40.4083 45.7717 40.4083 45.7717 40.4083 45.7717L17.9905 45.7705C17.5059 45.7705 17.0415 45.9582 16.6935 46.2955L7.08854 55.632C6.15738 56.5382 4.77252 56.796 3.57531 56.2924C2.37811 55.7888 1.60016 54.613 1.60016 53.3124V42.6326C1.60016 40.8594 2.29735 39.1586 3.53968 37.8913Z" fill="#9A96AA"/>
</svg>
