<svg width="57" height="57" viewBox="0 0 57 57" fill="none" xmlns="http://www.w3.org/2000/svg">
<path fill-rule="evenodd" clip-rule="evenodd" d="M37.8829 1.18713L35.1738 7.54749L49.841 22.2146L56.1564 19.5469L37.8829 1.18713Z" fill="#9A96AA"/>
<path fill-rule="evenodd" clip-rule="evenodd" d="M12.4626 22.2111C12.4626 22.2111 15.7066 36.7506 1.09473 51.3625C1.42948 51.7007 1.78494 52.0527 2.13696 52.4047L25.4801 29.0615C25.1695 28.3955 24.9797 27.6604 24.9797 26.877C24.9797 24.0195 27.2988 21.7004 30.1563 21.7004C33.0138 21.7004 35.333 24.0195 35.333 26.877C35.333 29.7345 33.0138 32.0536 30.1563 32.0536C29.3453 32.0536 28.5861 31.85 27.8993 31.5153L4.57687 54.8446C5.03932 55.3071 5.39478 55.6625 5.91935 56.1871C20.583 41.5269 35.1259 44.8261 35.1259 44.8261L44.644 23.9332L33.2727 12.5619L12.4626 22.2111Z" fill="#9A96AA"/>
</svg>
