<svg width="57" height="57" viewBox="0 0 57 57" fill="none" xmlns="http://www.w3.org/2000/svg">
<path d="M41.7022 32.3803C40.5366 32.4013 39.3566 32.6016 38.1614 32.9828C36.9661 33.3653 35.9663 33.787 35.1629 34.2483C34.3594 34.7107 33.5811 35.238 32.8278 35.8301C32.0745 36.4234 31.5771 36.835 31.3359 37.0662C31.0947 37.2981 30.9142 37.4831 30.7933 37.6227C31.7976 34.8917 32.5305 32.048 32.993 29.0957L33.505 29.1851C33.8466 29.2464 34.3133 29.2908 34.9064 29.3217C35.4985 29.3509 36.1764 29.362 36.9401 29.3509C37.7033 29.3416 38.5068 29.2464 39.3506 29.0648C40.1944 28.8838 41.0428 28.6432 41.8965 28.3418C42.7502 28.0405 43.5688 27.5839 44.3524 26.9702C45.136 26.3582 45.8338 25.6389 46.4463 24.815C47.0589 23.9922 47.5616 22.9424 47.9529 21.6665C48.3446 20.3918 48.5601 18.97 48.601 17.4033C47.2347 16.9421 45.9038 16.7009 44.6081 16.6793C43.3124 16.6606 42.1873 16.8066 41.2331 17.1173C40.2784 17.4279 39.3598 17.8752 38.4759 18.4579C37.5918 19.0407 36.8789 19.5984 36.3364 20.1308C35.7939 20.6629 35.2865 21.2456 34.8147 21.878C34.3424 22.5115 34.0364 22.9431 33.8956 23.1737C33.7549 23.4055 33.6545 23.5918 33.5943 23.7319C33.6142 23.2105 33.6247 22.4911 33.6247 21.5767C33.6247 20.6634 33.6142 20.156 33.5943 20.0561L33.8052 19.6042C33.9658 19.3029 34.1368 18.8801 34.3173 18.3377C34.4982 17.7964 34.6886 17.1734 34.8894 16.4697C35.0903 15.7673 35.2212 14.9994 35.2812 14.165C35.3414 13.3317 35.3461 12.4722 35.2964 11.5882C35.2462 10.7054 35.04 9.81078 34.6786 8.90685C34.3172 8.00293 33.8348 7.14928 33.2322 6.34582C32.6296 5.54237 31.7806 4.77335 30.6858 4.03992C29.5913 3.30764 28.3101 2.68995 26.8439 2.18713C25.8191 3.55352 25.1161 4.94385 24.7348 6.35975C24.353 7.77699 24.2327 9.05283 24.3733 10.1879C24.5135 11.3225 24.8451 12.4529 25.3677 13.5782C25.8898 14.7034 26.4322 15.6371 26.9951 16.3798C27.5575 17.1238 28.1951 17.8419 28.9087 18.5351C29.6216 19.2282 30.1138 19.6754 30.3854 19.8757C30.6563 20.0772 30.8723 20.2372 31.0329 20.3587C31.0329 21.8255 30.9127 23.7839 30.6715 26.2346L30.5512 25.7523C30.4501 25.451 30.2897 25.0545 30.0689 24.5622C29.8476 24.07 29.5713 23.5076 29.2402 22.8741C28.9086 22.2417 28.487 21.6088 27.9749 20.9752C27.4628 20.3428 26.8999 19.7309 26.2874 19.1377C25.6742 18.5456 24.9361 18.0429 24.0726 17.6312C23.2083 17.2189 22.284 16.9176 21.3001 16.7272C20.3157 16.5363 19.1858 16.5258 17.9099 16.6969C16.634 16.8685 15.2933 17.2346 13.8872 17.7976C14.0075 19.2042 14.2937 20.4847 14.7456 21.6398C15.1976 22.7948 15.7447 23.7443 16.3882 24.4869C17.031 25.2309 17.7843 25.8831 18.648 26.4454C19.5115 27.0083 20.3554 27.4351 21.1792 27.726C22.0025 28.0179 22.8919 28.2486 23.846 28.4191C24.8001 28.5896 25.6188 28.69 26.302 28.7204C26.9845 28.7496 27.6829 28.7554 28.3965 28.7345C29.1094 28.7158 29.5767 28.6895 29.7979 28.6591C30.0186 28.6299 30.1997 28.6048 30.3404 28.5837C29.8178 31.7994 29.0242 34.7224 27.9598 37.353C27.4577 36.4701 26.8901 35.6462 26.2571 34.8824C25.6242 34.1198 24.7354 33.345 23.5904 32.5625C22.4453 31.7784 21.1946 31.2114 19.8387 30.8593C18.4829 30.5082 16.8 30.433 14.7914 30.6332C12.7827 30.8346 10.6333 31.4075 8.3426 32.3505C9.00533 34.0182 9.75392 35.4851 10.5877 36.7503C11.4209 38.0158 12.27 39.0212 13.1342 39.764C13.9971 40.5079 14.9215 41.0999 15.9059 41.5414C16.8898 41.984 17.8241 42.2713 18.7082 42.401C19.5917 42.5318 20.5054 42.5574 21.4502 42.4763C22.3944 42.3963 23.2283 42.2655 23.9511 42.0845C24.6746 41.9046 25.3975 41.6734 26.1203 41.3913C24.0713 45.1688 21.5447 48.1263 18.5417 50.2664C15.538 52.4052 12.299 53.4843 8.82357 53.5059C8.44173 53.5059 8.11991 53.6309 7.85953 53.8825C7.59791 54.1318 7.46777 54.4489 7.46777 54.8313C7.46777 55.2126 7.59801 55.5338 7.85953 55.7954C8.11991 56.0569 8.44173 56.1871 8.82357 56.1871C13.0021 56.166 16.8641 54.8359 20.4096 52.1943C23.9552 49.5515 26.8631 45.9417 29.1334 41.362L29.6454 41.6633C29.9666 41.8648 30.4292 42.0907 31.0317 42.3412C31.6342 42.5917 32.332 42.8685 33.1261 43.1698C33.9197 43.4711 34.788 43.6925 35.7328 43.8325C36.677 43.9738 37.6463 44.0585 38.6407 44.0889C39.6351 44.1182 40.6546 43.9733 41.6993 43.651C42.7439 43.3309 43.7377 42.8632 44.6825 42.2501C45.6267 41.6382 46.5406 40.7494 47.4246 39.5828C48.3087 38.4185 49.0718 37.0323 49.7147 35.4254C48.3887 34.3614 47.0124 33.5819 45.5864 33.0902C44.1628 32.597 42.8671 32.3605 41.7022 32.3803Z" fill="#9A96AA"/>
</svg>
