<svg width="57" height="57" viewBox="0 0 57 57" fill="none" xmlns="http://www.w3.org/2000/svg">
<path d="M34.5564 51.69C32.8743 52.1544 31.3561 52.6103 29.9893 53.0475C34.7414 54.7589 36.8805 55.9966 37.2881 56.0985C37.8838 56.2477 39.2328 54.3271 38.5532 53.8281C37.389 52.9718 36.0316 52.2826 34.5564 51.69Z" fill="#9A96AA"/>
<path d="M53.9698 33.9845C53.455 34.1462 52.8257 34.3679 52.1607 34.4773C51.8769 34.5246 51.5881 34.5508 51.2991 34.5487C51.3085 34.5172 51.318 34.4857 51.3275 34.4541C51.5145 33.8184 51.6752 33.1565 51.7898 32.6144C51.9053 32.0733 51.9779 31.6541 52.0072 31.5028C52.0956 31.0605 52.1553 30.7411 52.2563 30.5162C52.3581 30.2902 52.5021 30.1579 52.7447 30.0844C53.7197 29.8469 54.6128 29.2102 55.2379 28.251C55.8642 27.2981 56.2151 26.0278 56.1164 24.6663C56.0523 23.811 55.8663 23.4392 55.6173 23.3677C55.3662 23.2963 55.0447 23.5222 54.6476 23.8437C54.2494 24.1663 53.7723 24.5813 53.225 24.9121C52.9907 25.055 52.7427 25.1822 52.4843 25.2832C52.4285 24.6947 52.3487 24.1011 52.2688 23.6157C52.1848 23.0978 52.106 22.7027 52.0808 22.5588C51.9316 21.7161 51.8685 21.3473 52.2542 21.0532C53.039 20.5132 53.6179 19.6495 53.8523 18.5916C54.0897 17.5377 53.9762 16.2949 53.4394 15.1234C53.0999 14.388 52.8121 14.1222 52.5672 14.1421C52.3203 14.161 52.1082 14.4678 51.8602 14.8838C51.6122 15.3019 51.3253 15.8284 50.9482 16.3043C50.7865 16.5092 50.6078 16.7035 50.4125 16.8789C50.1971 16.4366 49.9722 16.007 49.7736 15.6486C49.533 15.2137 49.3345 14.8859 49.2672 14.765C48.8648 14.0599 48.6925 13.7501 48.9446 13.3655C49.4774 12.6342 49.7242 11.6813 49.6087 10.6653C49.4962 9.65149 49.0172 8.57992 48.184 7.69833C47.6587 7.14576 47.3215 6.99547 47.1082 7.08691C46.8917 7.18043 46.792 7.51863 46.6942 7.96839C46.5965 8.41815 46.4967 8.97816 46.3034 9.52023C46.2215 9.75036 46.1216 9.97513 46.0018 10.1895C45.7633 9.94987 45.5301 9.72302 45.3211 9.52756C44.9575 9.18718 44.6696 8.93495 44.5677 8.84155C43.9687 8.29411 43.7093 8.0525 43.8311 7.60908C44.1149 6.7497 44.0581 5.76618 43.6368 4.83538C43.2198 3.90458 42.4338 3.03044 41.3695 2.44723C40.6992 2.08148 40.3315 2.04057 40.156 2.19501C39.9785 2.34934 39.9878 2.70252 40.0331 3.16059C40.0762 3.59756 40.1487 4.13132 40.1393 4.67985C39.7778 4.25743 39.284 3.93072 38.7292 3.67434C38.08 3.37169 37.1081 3.17317 36.2687 3.23825C35.4271 3.29928 34.7348 3.6144 34.5729 4.1964C34.409 4.78168 34.8019 5.3931 35.3346 5.93211C35.8725 6.46795 36.5555 6.94396 37.1051 7.19924C37.5956 7.425 38.0831 7.59421 38.597 7.6268C38.5738 7.64463 38.5507 7.66246 38.5276 7.6804C38.0801 8.01979 37.6283 8.30341 37.2826 8.56395C36.937 8.82241 36.6963 9.0556 36.6574 9.2784C36.6186 9.50219 36.7814 9.71011 37.2416 9.96234C37.9718 10.3627 38.7745 10.5213 39.6076 10.4835C40.4377 10.4425 41.2971 10.2072 42.064 9.74588C42.457 9.5327 42.7376 9.71864 43.2871 10.226C43.3806 10.3122 43.6317 10.5613 43.9427 10.8985C44.1203 11.0908 44.3157 11.3125 44.5154 11.5469C44.3042 11.6466 44.0877 11.7328 43.8724 11.8084C43.3429 11.9934 42.8258 12.1247 42.4172 12.2654C42.0075 12.4063 41.708 12.5522 41.6018 12.753C41.4968 12.9547 41.5881 13.2036 41.9496 13.584C42.5233 14.1914 43.2387 14.5885 44.0426 14.8081C44.8453 15.0245 45.7362 15.0624 46.6072 14.8585C47.0475 14.7756 47.2565 15.0382 47.6231 15.6897C47.6861 15.801 47.8491 16.1151 48.0413 16.5301C48.2 16.8737 48.3775 17.2888 48.5425 17.7111C48.2777 17.7457 48.012 17.7583 47.7513 17.7614C47.1619 17.7688 46.603 17.7267 46.148 17.731C45.6942 17.7351 45.3452 17.7825 45.173 17.9454C44.9995 18.1104 45.0048 18.3856 45.2328 18.8805C45.5932 19.6663 46.1648 20.2947 46.8844 20.7833C47.6052 21.2676 48.4751 21.6132 49.4103 21.7152C49.8757 21.7877 49.9913 22.1207 50.1246 22.894C50.1467 23.0254 50.1971 23.3931 50.2392 23.8722C50.2791 24.3219 50.3096 24.8682 50.3169 25.4072C50.049 25.3431 49.7884 25.2601 49.5372 25.1697C48.9532 24.9596 48.4162 24.7137 47.9666 24.5539C47.5179 24.3922 47.1564 24.3123 46.9264 24.41C46.6952 24.5077 46.5986 24.7777 46.6405 25.3441C46.7057 26.2424 47.0345 27.0714 47.5631 27.8152C48.0916 28.5559 48.8186 29.2179 49.7001 29.6685C49.9166 29.7915 50.0205 29.9438 50.0511 30.1687C50.0826 30.3936 50.0416 30.6877 49.9586 31.0923C49.9312 31.2299 49.842 31.6091 49.7001 32.0935C49.5603 32.5779 49.3671 33.1663 49.1517 33.7263C49.1402 33.7548 49.1296 33.7821 49.1191 33.8093C48.8848 33.6433 48.6664 33.4615 48.4573 33.2777C47.9698 32.8438 47.5411 32.3962 47.164 32.0662C46.7868 31.7352 46.4653 31.5178 46.2025 31.522C45.9366 31.5262 45.7392 31.75 45.5616 32.3089C45.2759 33.1956 45.2748 34.1141 45.4924 35.0427C45.7119 35.9674 46.151 36.9013 46.8245 37.6966C47.1428 38.1095 46.9821 38.4647 46.4957 39.1801C46.4127 39.3019 46.1699 39.6319 45.8348 40.0428C45.5008 40.4525 45.0699 40.9411 44.6297 41.3928C44.5593 41.4663 44.4879 41.5378 44.4174 41.6083C44.265 41.3519 44.1306 41.0871 44.0087 40.8245C43.7219 40.2004 43.4981 39.5899 43.2722 39.1129C43.0484 38.635 42.8277 38.2914 42.5735 38.1832C42.3171 38.076 42.0334 38.2042 41.63 38.6634C40.9849 39.3884 40.5994 40.2647 40.4155 41.2469C40.2358 42.224 40.2579 43.3093 40.5594 44.3622C40.6876 44.8958 40.3797 45.1659 39.6033 45.6387C39.4709 45.7186 39.0957 45.9287 38.5968 46.1734C38.0977 46.4194 37.4736 46.6945 36.8558 46.9288C36.238 47.1663 35.3954 47.5288 34.9467 47.6864C29.102 49.7405 22.0668 50.6271 17.7108 53.8286C17.032 54.3276 18.3811 56.2482 18.9768 56.0989C19.5725 55.9508 23.854 53.382 34.5717 50.4507C35.0212 50.2921 37.1972 49.5829 37.8623 49.2646C38.5295 48.9473 39.1966 48.5858 39.7282 48.2758C40.2598 47.9649 40.6581 47.7075 40.8051 47.6192C41.2328 47.3566 41.5386 47.1642 41.8001 47.0771C42.0606 46.989 42.2771 47.0046 42.5208 47.1465C42.9873 47.4512 43.5179 47.6634 44.0916 47.7695C44.6652 47.8746 45.283 47.8725 45.9124 47.7548C46.5406 47.6361 47.1825 47.4018 47.7941 47.0487C48.4066 46.6967 48.9908 46.2271 49.5003 45.6524C50.1412 44.9264 50.2935 44.483 50.157 44.2308C50.0194 43.9755 49.5886 43.8998 49.0234 43.8378C48.457 43.778 47.7553 43.7265 47.0682 43.551C46.7782 43.4775 46.4914 43.3819 46.2172 43.2591C46.2897 43.174 46.3611 43.0878 46.4326 43.0005C46.8779 42.4615 47.3088 41.887 47.644 41.4099C47.9792 40.9319 48.2219 40.5536 48.3132 40.4191C48.8438 39.629 49.0749 39.2834 49.6109 39.3412C50.6541 39.5072 51.7825 39.2476 52.7817 38.5595C53.2797 38.216 53.7442 37.7674 54.1382 37.2295C54.5333 36.6925 54.8579 36.0643 55.0806 35.374C55.358 34.504 55.3201 34.0628 55.1058 33.8956C54.8881 33.7271 54.4847 33.8227 53.9698 33.9845Z" fill="#9A96AA"/>
<path d="M21.6492 50.4356C22.9973 49.9144 24.4208 49.4722 25.8634 49.0613C24.3137 48.6388 22.7787 48.1987 21.3183 47.6859C20.8697 47.5283 20.0271 47.1659 19.4094 46.9284C18.7916 46.6941 18.1675 46.4189 17.6685 46.1729C17.1694 45.9281 16.7944 45.718 16.6619 45.6383C15.8854 45.1655 15.5777 44.8954 15.7059 44.3617C16.0074 43.3089 16.0294 42.2235 15.8498 41.2465C15.6659 40.2643 15.2804 39.3879 14.6353 38.663C14.2319 38.2038 13.9482 38.0756 13.6919 38.1828C13.4375 38.291 13.217 38.6345 12.9931 39.1125C12.7672 39.5895 12.5424 40.1999 12.2566 40.824C12.1348 41.0867 12.0003 41.3515 11.8479 41.6078C11.7775 41.5374 11.7061 41.4659 11.6356 41.3924C11.1953 40.9406 10.7647 40.4521 10.4305 40.0423C10.0953 39.6315 9.85263 39.3016 9.76961 39.1797C9.2831 38.4642 9.12133 38.1091 9.44071 37.6962C10.1143 36.9009 10.5534 35.9668 10.7729 35.0422C10.9904 34.1136 10.9893 33.1952 10.7035 32.3085C10.526 31.7496 10.3284 31.5258 10.0626 31.5216C9.80002 31.5175 9.47845 31.7349 9.10131 32.0658C8.72418 32.3958 8.29542 32.8432 7.80793 33.2772C7.59891 33.4611 7.38037 33.6429 7.14608 33.8089C7.13558 33.7816 7.12497 33.7542 7.11458 33.7259C6.89813 33.1659 6.70486 32.5775 6.56507 32.0931C6.42332 31.6088 6.33396 31.2295 6.30672 31.0919C6.22381 30.6874 6.1828 30.3932 6.2143 30.1683C6.24471 29.9434 6.34883 29.7911 6.56518 29.6681C7.44676 29.2175 8.17379 28.5555 8.70329 27.8148C9.23071 27.0709 9.56059 26.242 9.62469 25.3436C9.66778 24.7773 9.57 24.5072 9.33899 24.4096C9.10886 24.3119 8.74748 24.3917 8.29881 24.5535C7.84905 24.7133 7.31223 24.9591 6.72914 25.1693C6.47691 25.2596 6.21638 25.3426 5.94851 25.4068C5.95693 24.8677 5.98636 24.3214 6.02628 23.8718C6.06828 23.3927 6.1187 23.025 6.14069 22.8936C6.27413 22.1204 6.38974 21.7872 6.85514 21.7147C7.79021 21.6128 8.66009 21.2672 9.38088 20.7828C10.1006 20.2942 10.6722 19.666 11.0326 18.8801C11.2605 18.3852 11.2658 18.11 11.0924 17.9449C10.9202 17.7822 10.5713 17.7348 10.1174 17.7305C9.66242 17.7264 9.1035 17.7684 8.51418 17.7609C8.25364 17.7579 7.98774 17.7452 7.72294 17.7106C7.88788 17.2882 8.06551 16.8732 8.22411 16.5297C8.41639 16.1147 8.57926 15.8006 8.64237 15.6892C9.009 15.0378 9.21813 14.7752 9.65826 14.8581C10.5292 15.062 11.4202 15.0241 12.2229 14.8076C13.0268 14.588 13.7422 14.191 14.3159 13.5836C14.6774 13.2033 14.7687 12.9544 14.6637 12.7526C14.5575 12.5519 14.2581 12.4058 13.8484 12.265C13.4397 12.1242 12.9227 11.9928 12.3931 11.808C12.1778 11.7323 11.9614 11.6461 11.7502 11.5465C11.9497 11.3122 12.1453 11.0904 12.3239 10.8981C12.6339 10.561 12.885 10.3118 12.9784 10.2256C13.5278 9.71821 13.8084 9.53227 14.2014 9.74545C14.9683 10.2068 15.8278 10.4421 16.6578 10.4831C17.4909 10.5208 18.2936 10.3622 19.0238 9.9619C19.4841 9.70968 19.6468 9.50175 19.608 9.27797C19.5692 9.05517 19.3284 8.82186 18.9828 8.56351C18.6372 8.30298 18.1854 8.01936 17.7379 7.67996C17.7147 7.66203 17.6916 7.6442 17.6685 7.62637C18.1823 7.59377 18.6698 7.42468 19.1604 7.19881C19.7099 6.94353 20.3929 6.46752 20.9308 5.93168C21.4635 5.39266 21.8564 4.78124 21.6936 4.19597C21.5307 3.61386 20.8383 3.29874 19.9967 3.23782C19.1573 3.17274 18.1854 3.37126 17.5361 3.67391C16.9813 3.93029 16.4876 4.257 16.1262 4.67941C16.1168 4.131 16.1892 3.59723 16.2323 3.16016C16.2775 2.70209 16.287 2.34891 16.1093 2.19458C15.9339 2.04003 15.5662 2.08104 14.8959 2.4468C13.8316 3.02989 13.0458 3.90404 12.6286 4.83495C12.2073 5.76575 12.1505 6.74927 12.4342 7.60865C12.556 8.05207 12.2966 8.29368 11.6976 8.84111C11.5958 8.93452 11.3078 9.18675 10.9444 9.52713C10.7353 9.72259 10.5021 9.94954 10.2636 10.1891C10.1438 9.9747 10.0439 9.74993 9.96212 9.5198C9.76874 8.97773 9.66898 8.41771 9.5712 7.96795C9.47353 7.51819 9.37366 7.18 9.15721 7.08648C8.94392 6.99504 8.60671 7.14533 8.08137 7.6979C7.24824 8.57948 6.76906 9.65116 6.65673 10.6649C6.54123 11.681 6.78809 12.6339 7.32076 13.3651C7.57298 13.7496 7.40061 14.0595 6.99821 14.7646C6.93094 14.8854 6.73231 15.2132 6.49179 15.6482C6.29316 16.0065 6.06828 16.4362 5.85292 16.8785C5.65757 16.7031 5.47895 16.5087 5.31719 16.3038C4.93994 15.8279 4.65316 15.3015 4.4052 14.8833C4.15735 14.4673 3.94505 14.1606 3.69818 14.1417C3.45339 14.1216 3.16551 14.3875 2.82721 15.123C2.28929 16.2945 2.17587 17.5374 2.41332 18.5911C2.6475 19.6491 3.22644 20.5129 4.01133 21.0528C4.39688 21.3469 4.33388 21.7157 4.18371 22.5584C4.15943 22.7023 4.08067 23.0974 3.99558 23.6153C3.91672 24.1007 3.83687 24.6944 3.7812 25.2827C3.52274 25.1818 3.27478 25.0547 3.03951 24.9117C2.49317 24.5807 2.01618 24.1658 1.61804 23.8433C1.22089 23.5217 0.899323 23.2959 0.648302 23.3673C0.399359 23.4387 0.213308 23.8107 0.149322 24.6658C0.0505545 26.0275 0.401437 27.2977 1.02762 28.2506C1.65271 29.2098 2.54578 29.8465 3.52088 30.084C3.76348 30.1576 3.90742 30.2899 4.00947 30.5158C4.11032 30.7407 4.17014 31.06 4.25841 31.5024C4.28783 31.6536 4.36024 32.0729 4.47596 32.614C4.59048 33.156 4.75116 33.818 4.93819 34.4537C4.94771 34.4852 4.95711 34.5167 4.96663 34.5483C4.67777 34.5503 4.38879 34.524 4.10506 34.4769C3.44005 34.3675 2.81069 34.1458 2.29585 33.984C1.78112 33.8224 1.37763 33.7267 1.16008 33.8948C0.945699 34.0619 0.907855 34.5031 1.18535 35.3731C1.40804 36.0634 1.73278 36.6915 2.12774 37.2286C2.52172 37.7665 2.98613 38.2152 3.48424 38.5586C4.4834 39.2468 5.61174 39.5064 6.65498 39.3403C7.19093 39.2825 7.42193 39.6281 7.95263 40.4183C8.04407 40.5528 8.28667 40.931 8.62191 41.409C8.95705 41.8861 9.38777 42.4607 9.83327 42.9997C9.9048 43.087 9.97622 43.1731 10.0486 43.2582C9.77453 43.3811 9.48764 43.4768 9.19768 43.5502C8.51057 43.7256 7.80869 43.7772 7.24245 43.837C6.67729 43.8991 6.24646 43.9747 6.10875 44.2299C5.97225 44.4822 6.12461 44.9255 6.76545 45.6515C7.27504 46.2262 7.85923 46.6959 8.47174 47.0478C9.08327 47.4008 9.7252 47.6352 10.3535 47.754C10.9828 47.8716 11.6006 47.8737 12.1743 47.7686C12.748 47.6625 13.2785 47.4503 13.745 47.1456C13.9888 47.0039 14.2052 46.9881 14.4657 47.0763C14.7274 47.1634 15.0332 47.3558 15.4607 47.6184C15.6077 47.7066 16.0061 47.964 16.5377 48.2749C17.0692 48.5849 17.7364 48.9464 18.4036 49.2637C19.0479 49.5729 21.1176 50.2507 21.6492 50.4356Z" fill="#9A96AA"/>
<path d="M36.6167 38.5716L35.3866 28.5651L42.0854 21.7576L32.484 20.4739L28.1353 12.0475V12.0058L23.7776 20.4441L14.1777 21.7264L20.8765 28.5354L19.6479 38.5404L28.1278 33.9325V33.9593L36.6167 38.5716Z" fill="#9A96AA"/>
</svg>
